solid OpenSCAD_Model
  facet normal -1 0 0
    outer loop
      vertex -74.5 3 51
      vertex -74.5 67 53.5
      vertex -74.5 67 51
    endloop
  endfacet
  facet normal -1 -0 0
    outer loop
      vertex -74.5 67 53.5
      vertex -74.5 3 51
      vertex -74.5 3 53.5
    endloop
  endfacet
  facet normal 0 0 1
    outer loop
      vertex 71.0155 64.3391 53.5
      vertex -71.0155 64.3391 53.5
      vertex 71.0155 5.66093 53.5
    endloop
  endfacet
  facet normal 0 0 1
    outer loop
      vertex 71.0155 5.66093 53.5
      vertex -70.9105 5.33784 53.5
      vertex -70.875 5 53.5
    endloop
  endfacet
  facet normal 0 0 1
    outer loop
      vertex -71.0155 5.66093 53.5
      vertex 71.0155 5.66093 53.5
      vertex -71.0155 64.3391 53.5
    endloop
  endfacet
  facet normal 0 0 1
    outer loop
      vertex 71.0155 5.66093 53.5
      vertex -71.0155 5.66093 53.5
      vertex -70.9105 5.33784 53.5
    endloop
  endfacet
  facet normal -0 0 1
    outer loop
      vertex -71.1853 64.0448 53.5
      vertex -71.0155 5.66093 53.5
      vertex -71.0155 64.3391 53.5
    endloop
  endfacet
  facet normal 0 0 1
    outer loop
      vertex -71.1853 64.0448 53.5
      vertex -71.1853 5.95514 53.5
      vertex -71.0155 5.66093 53.5
    endloop
  endfacet
  facet normal -0 0 1
    outer loop
      vertex -71.4127 63.7924 53.5
      vertex -71.1853 5.95514 53.5
      vertex -71.1853 64.0448 53.5
    endloop
  endfacet
  facet normal 0 0 1
    outer loop
      vertex -71.4127 63.7924 53.5
      vertex -71.4127 6.2076 53.5
      vertex -71.1853 5.95514 53.5
    endloop
  endfacet
  facet normal -0 0 1
    outer loop
      vertex -71.6875 63.5927 53.5
      vertex -71.4127 6.2076 53.5
      vertex -71.4127 63.7924 53.5
    endloop
  endfacet
  facet normal 0 0 1
    outer loop
      vertex -71.6875 63.5927 53.5
      vertex -71.6875 6.40729 53.5
      vertex -71.4127 6.2076 53.5
    endloop
  endfacet
  facet normal -0 0 1
    outer loop
      vertex -71.9978 63.4545 53.5
      vertex -71.6875 6.40729 53.5
      vertex -71.6875 63.5927 53.5
    endloop
  endfacet
  facet normal 0 0 1
    outer loop
      vertex -71.9978 63.4545 53.5
      vertex -71.9978 6.54546 53.5
      vertex -71.6875 6.40729 53.5
    endloop
  endfacet
  facet normal -0 0 1
    outer loop
      vertex -72.3301 63.3839 53.5
      vertex -71.9978 6.54546 53.5
      vertex -71.9978 63.4545 53.5
    endloop
  endfacet
  facet normal 0 0 1
    outer loop
      vertex -72.3301 63.3839 53.5
      vertex -72.3301 6.61609 53.5
      vertex -71.9978 6.54546 53.5
    endloop
  endfacet
  facet normal -0 0 1
    outer loop
      vertex -72.6698 63.3839 53.5
      vertex -72.3301 6.61609 53.5
      vertex -72.3301 63.3839 53.5
    endloop
  endfacet
  facet normal 0 0 1
    outer loop
      vertex -72.6698 63.3839 53.5
      vertex -72.6698 6.61609 53.5
      vertex -72.3301 6.61609 53.5
    endloop
  endfacet
  facet normal 0 0 1
    outer loop
      vertex -73.0022 63.4545 53.5
      vertex -72.6698 6.61609 53.5
      vertex -72.6698 63.3839 53.5
    endloop
  endfacet
  facet normal 0 0 1
    outer loop
      vertex -73.0022 63.4545 53.5
      vertex -73.0022 6.54546 53.5
      vertex -72.6698 6.61609 53.5
    endloop
  endfacet
  facet normal 0 0 1
    outer loop
      vertex -73.3125 63.5927 53.5
      vertex -73.0022 6.54546 53.5
      vertex -73.0022 63.4545 53.5
    endloop
  endfacet
  facet normal 0 0 1
    outer loop
      vertex -73.3125 63.5927 53.5
      vertex -73.3125 6.40729 53.5
      vertex -73.0022 6.54546 53.5
    endloop
  endfacet
  facet normal 0 0 1
    outer loop
      vertex -73.5873 63.7924 53.5
      vertex -73.3125 6.40729 53.5
      vertex -73.3125 63.5927 53.5
    endloop
  endfacet
  facet normal 0 0 1
    outer loop
      vertex -73.5873 63.7924 53.5
      vertex -73.5873 6.2076 53.5
      vertex -73.3125 6.40729 53.5
    endloop
  endfacet
  facet normal 0 0 1
    outer loop
      vertex -73.8147 64.0448 53.5
      vertex -73.5873 6.2076 53.5
      vertex -73.5873 63.7924 53.5
    endloop
  endfacet
  facet normal 0 0 1
    outer loop
      vertex -73.8147 64.0448 53.5
      vertex -73.8147 5.95514 53.5
      vertex -73.5873 6.2076 53.5
    endloop
  endfacet
  facet normal 0 0 1
    outer loop
      vertex -73.9845 64.3391 53.5
      vertex -73.8147 5.95514 53.5
      vertex -73.8147 64.0448 53.5
    endloop
  endfacet
  facet normal 0 0 1
    outer loop
      vertex -73.9845 64.3391 53.5
      vertex -73.9845 5.66093 53.5
      vertex -73.8147 5.95514 53.5
    endloop
  endfacet
  facet normal 0 0 1
    outer loop
      vertex -74.0895 64.6621 53.5
      vertex -73.9845 5.66093 53.5
      vertex -73.9845 64.3391 53.5
    endloop
  endfacet
  facet normal 0 0 1
    outer loop
      vertex -74.0895 64.6621 53.5
      vertex -74.0895 5.33784 53.5
      vertex -73.9845 5.66093 53.5
    endloop
  endfacet
  facet normal 0 0 1
    outer loop
      vertex -74.5 67 53.5
      vertex -74.0895 64.6621 53.5
      vertex -74.125 65 53.5
    endloop
  endfacet
  facet normal 0 0 1
    outer loop
      vertex -74.0895 64.6621 53.5
      vertex -74.5 67 53.5
      vertex -74.0895 5.33784 53.5
    endloop
  endfacet
  facet normal -0 0 1
    outer loop
      vertex 74.0895 5.33784 53.5
      vertex 74.5 3 53.5
      vertex 74.0895 64.6621 53.5
    endloop
  endfacet
  facet normal 0 0 1
    outer loop
      vertex 74.5 3 53.5
      vertex 74.0895 5.33784 53.5
      vertex 74.125 5 53.5
    endloop
  endfacet
  facet normal -0 0 1
    outer loop
      vertex 73.9845 64.3391 53.5
      vertex 74.0895 5.33784 53.5
      vertex 74.0895 64.6621 53.5
    endloop
  endfacet
  facet normal 0 0 1
    outer loop
      vertex 73.9845 64.3391 53.5
      vertex 73.9845 5.66093 53.5
      vertex 74.0895 5.33784 53.5
    endloop
  endfacet
  facet normal -0 0 1
    outer loop
      vertex 73.8147 64.0448 53.5
      vertex 73.9845 5.66093 53.5
      vertex 73.9845 64.3391 53.5
    endloop
  endfacet
  facet normal 0 0 1
    outer loop
      vertex 73.8147 64.0448 53.5
      vertex 73.8147 5.95514 53.5
      vertex 73.9845 5.66093 53.5
    endloop
  endfacet
  facet normal -0 0 1
    outer loop
      vertex 73.5873 63.7924 53.5
      vertex 73.8147 5.95514 53.5
      vertex 73.8147 64.0448 53.5
    endloop
  endfacet
  facet normal 0 0 1
    outer loop
      vertex 73.5873 63.7924 53.5
      vertex 73.5873 6.2076 53.5
      vertex 73.8147 5.95514 53.5
    endloop
  endfacet
  facet normal -0 0 1
    outer loop
      vertex 73.3125 63.5927 53.5
      vertex 73.5873 6.2076 53.5
      vertex 73.5873 63.7924 53.5
    endloop
  endfacet
  facet normal 0 0 1
    outer loop
      vertex 73.3125 63.5927 53.5
      vertex 73.3125 6.40729 53.5
      vertex 73.5873 6.2076 53.5
    endloop
  endfacet
  facet normal -0 0 1
    outer loop
      vertex 73.0022 63.4545 53.5
      vertex 73.3125 6.40729 53.5
      vertex 73.3125 63.5927 53.5
    endloop
  endfacet
  facet normal 0 0 1
    outer loop
      vertex 73.0022 63.4545 53.5
      vertex 73.0022 6.54546 53.5
      vertex 73.3125 6.40729 53.5
    endloop
  endfacet
  facet normal -0 0 1
    outer loop
      vertex 72.6698 63.3839 53.5
      vertex 73.0022 6.54546 53.5
      vertex 73.0022 63.4545 53.5
    endloop
  endfacet
  facet normal 0 0 1
    outer loop
      vertex 72.6698 63.3839 53.5
      vertex 72.6698 6.61609 53.5
      vertex 73.0022 6.54546 53.5
    endloop
  endfacet
  facet normal -0 0 1
    outer loop
      vertex 72.3301 63.3839 53.5
      vertex 72.6698 6.61609 53.5
      vertex 72.6698 63.3839 53.5
    endloop
  endfacet
  facet normal 0 0 1
    outer loop
      vertex 72.3301 63.3839 53.5
      vertex 72.3301 6.61609 53.5
      vertex 72.6698 6.61609 53.5
    endloop
  endfacet
  facet normal 0 0 1
    outer loop
      vertex 71.9978 63.4545 53.5
      vertex 72.3301 6.61609 53.5
      vertex 72.3301 63.3839 53.5
    endloop
  endfacet
  facet normal 0 0 1
    outer loop
      vertex 71.9978 63.4545 53.5
      vertex 71.9978 6.54546 53.5
      vertex 72.3301 6.61609 53.5
    endloop
  endfacet
  facet normal 0 0 1
    outer loop
      vertex 71.6875 63.5927 53.5
      vertex 71.9978 6.54546 53.5
      vertex 71.9978 63.4545 53.5
    endloop
  endfacet
  facet normal 0 0 1
    outer loop
      vertex 71.6875 63.5927 53.5
      vertex 71.6875 6.40729 53.5
      vertex 71.9978 6.54546 53.5
    endloop
  endfacet
  facet normal 0 0 1
    outer loop
      vertex 71.4127 63.7924 53.5
      vertex 71.6875 6.40729 53.5
      vertex 71.6875 63.5927 53.5
    endloop
  endfacet
  facet normal 0 0 1
    outer loop
      vertex 71.4127 63.7924 53.5
      vertex 71.4127 6.2076 53.5
      vertex 71.6875 6.40729 53.5
    endloop
  endfacet
  facet normal 0 0 1
    outer loop
      vertex 71.1853 64.0448 53.5
      vertex 71.4127 6.2076 53.5
      vertex 71.4127 63.7924 53.5
    endloop
  endfacet
  facet normal 0 0 1
    outer loop
      vertex 71.1853 64.0448 53.5
      vertex 71.1853 5.95514 53.5
      vertex 71.4127 6.2076 53.5
    endloop
  endfacet
  facet normal 0 0 1
    outer loop
      vertex 71.0155 64.3391 53.5
      vertex 71.1853 5.95514 53.5
      vertex 71.1853 64.0448 53.5
    endloop
  endfacet
  facet normal 0 0 1
    outer loop
      vertex 71.0155 64.3391 53.5
      vertex 71.0155 5.66093 53.5
      vertex 71.1853 5.95514 53.5
    endloop
  endfacet
  facet normal 0 0 1
    outer loop
      vertex -70.9105 64.6621 53.5
      vertex 70.9105 64.6621 53.5
      vertex -70.875 65 53.5
    endloop
  endfacet
  facet normal 0 0 1
    outer loop
      vertex 70.9105 64.6621 53.5
      vertex -70.9105 64.6621 53.5
      vertex 71.0155 64.3391 53.5
    endloop
  endfacet
  facet normal -0 0 1
    outer loop
      vertex -70.875 65 53.5
      vertex 70.9105 64.6621 53.5
      vertex 70.875 65 53.5
    endloop
  endfacet
  facet normal 0 0 1
    outer loop
      vertex -71.0155 64.3391 53.5
      vertex 71.0155 64.3391 53.5
      vertex -70.9105 64.6621 53.5
    endloop
  endfacet
  facet normal 0 0 1
    outer loop
      vertex 74.0895 64.6621 53.5
      vertex 74.5 67 53.5
      vertex 74.125 65 53.5
    endloop
  endfacet
  facet normal 0 0 1
    outer loop
      vertex 74.5 67 53.5
      vertex 74.0895 65.3378 53.5
      vertex 74.125 65 53.5
    endloop
  endfacet
  facet normal 0 0 1
    outer loop
      vertex 74.5 67 53.5
      vertex 73.9845 65.6609 53.5
      vertex 74.0895 65.3378 53.5
    endloop
  endfacet
  facet normal 0 0 1
    outer loop
      vertex 74.5 67 53.5
      vertex 73.8147 65.9551 53.5
      vertex 73.9845 65.6609 53.5
    endloop
  endfacet
  facet normal 0 0 1
    outer loop
      vertex 74.5 67 53.5
      vertex 73.5873 66.2076 53.5
      vertex 73.8147 65.9551 53.5
    endloop
  endfacet
  facet normal 0 0 1
    outer loop
      vertex 74.5 67 53.5
      vertex 73.3125 66.4073 53.5
      vertex 73.5873 66.2076 53.5
    endloop
  endfacet
  facet normal 0 0 1
    outer loop
      vertex 74.5 67 53.5
      vertex 73.0022 66.5455 53.5
      vertex 73.3125 66.4073 53.5
    endloop
  endfacet
  facet normal 0 0 1
    outer loop
      vertex 74.5 67 53.5
      vertex 72.6698 66.6161 53.5
      vertex 73.0022 66.5455 53.5
    endloop
  endfacet
  facet normal 0 0 1
    outer loop
      vertex 74.5 67 53.5
      vertex 72.3301 66.6161 53.5
      vertex 72.6698 66.6161 53.5
    endloop
  endfacet
  facet normal 0 0 1
    outer loop
      vertex 71.0155 5.66093 53.5
      vertex -70.875 5 53.5
      vertex 70.9105 5.33784 53.5
    endloop
  endfacet
  facet normal 0 0 1
    outer loop
      vertex 70.9105 65.3378 53.5
      vertex -70.875 65 53.5
      vertex 70.875 65 53.5
    endloop
  endfacet
  facet normal 0 0 1
    outer loop
      vertex -70.9105 65.3378 53.5
      vertex 70.9105 65.3378 53.5
      vertex 71.0155 65.6609 53.5
    endloop
  endfacet
  facet normal 0 0 1
    outer loop
      vertex -71.0155 65.6609 53.5
      vertex 71.0155 65.6609 53.5
      vertex 71.1853 65.9551 53.5
    endloop
  endfacet
  facet normal 0 0 1
    outer loop
      vertex -71.1853 65.9551 53.5
      vertex 71.1853 65.9551 53.5
      vertex 71.4127 66.2076 53.5
    endloop
  endfacet
  facet normal 0 0 1
    outer loop
      vertex -71.4127 66.2076 53.5
      vertex 71.4127 66.2076 53.5
      vertex 71.6875 66.4073 53.5
    endloop
  endfacet
  facet normal 0 0 1
    outer loop
      vertex -71.6875 66.4073 53.5
      vertex 71.6875 66.4073 53.5
      vertex 71.9978 66.5455 53.5
    endloop
  endfacet
  facet normal 0 0 1
    outer loop
      vertex -71.9978 66.5455 53.5
      vertex 71.9978 66.5455 53.5
      vertex 72.3301 66.6161 53.5
    endloop
  endfacet
  facet normal 0 0 1
    outer loop
      vertex -72.3301 66.6161 53.5
      vertex 72.3301 66.6161 53.5
      vertex 74.5 67 53.5
    endloop
  endfacet
  facet normal 0 0 1
    outer loop
      vertex 70.9105 65.3378 53.5
      vertex -70.9105 65.3378 53.5
      vertex -70.875 65 53.5
    endloop
  endfacet
  facet normal 0 0 1
    outer loop
      vertex 71.0155 65.6609 53.5
      vertex -71.0155 65.6609 53.5
      vertex -70.9105 65.3378 53.5
    endloop
  endfacet
  facet normal 0 0 1
    outer loop
      vertex 71.1853 65.9551 53.5
      vertex -71.1853 65.9551 53.5
      vertex -71.0155 65.6609 53.5
    endloop
  endfacet
  facet normal 0 0 1
    outer loop
      vertex 71.4127 66.2076 53.5
      vertex -71.4127 66.2076 53.5
      vertex -71.1853 65.9551 53.5
    endloop
  endfacet
  facet normal 0 0 1
    outer loop
      vertex 71.6875 66.4073 53.5
      vertex -71.6875 66.4073 53.5
      vertex -71.4127 66.2076 53.5
    endloop
  endfacet
  facet normal 0 0 1
    outer loop
      vertex 71.9978 66.5455 53.5
      vertex -71.9978 66.5455 53.5
      vertex -71.6875 66.4073 53.5
    endloop
  endfacet
  facet normal 0 0 1
    outer loop
      vertex 72.3301 66.6161 53.5
      vertex -72.3301 66.6161 53.5
      vertex -71.9978 66.5455 53.5
    endloop
  endfacet
  facet normal -0 0 1
    outer loop
      vertex -74.5 67 53.5
      vertex -72.3301 66.6161 53.5
      vertex 74.5 67 53.5
    endloop
  endfacet
  facet normal 0 0 1
    outer loop
      vertex -74.5 3 53.5
      vertex -74.0895 5.33784 53.5
      vertex -74.5 67 53.5
    endloop
  endfacet
  facet normal 0 0 1
    outer loop
      vertex -74.0895 65.3378 53.5
      vertex -74.5 67 53.5
      vertex -74.125 65 53.5
    endloop
  endfacet
  facet normal 0 0 1
    outer loop
      vertex -73.9845 65.6609 53.5
      vertex -74.5 67 53.5
      vertex -74.0895 65.3378 53.5
    endloop
  endfacet
  facet normal 0 0 1
    outer loop
      vertex -73.8147 65.9551 53.5
      vertex -74.5 67 53.5
      vertex -73.9845 65.6609 53.5
    endloop
  endfacet
  facet normal 0 0 1
    outer loop
      vertex -73.5873 66.2076 53.5
      vertex -74.5 67 53.5
      vertex -73.8147 65.9551 53.5
    endloop
  endfacet
  facet normal 0 0 1
    outer loop
      vertex -73.3125 66.4073 53.5
      vertex -74.5 67 53.5
      vertex -73.5873 66.2076 53.5
    endloop
  endfacet
  facet normal 0 0 1
    outer loop
      vertex -73.0022 66.5455 53.5
      vertex -74.5 67 53.5
      vertex -73.3125 66.4073 53.5
    endloop
  endfacet
  facet normal 0 0 1
    outer loop
      vertex -72.6698 66.6161 53.5
      vertex -74.5 67 53.5
      vertex -73.0022 66.5455 53.5
    endloop
  endfacet
  facet normal 0 0 1
    outer loop
      vertex -72.3301 66.6161 53.5
      vertex -74.5 67 53.5
      vertex -72.6698 66.6161 53.5
    endloop
  endfacet
  facet normal 0 0 1
    outer loop
      vertex 74.5 67 53.5
      vertex 74.0895 64.6621 53.5
      vertex 74.5 3 53.5
    endloop
  endfacet
  facet normal -0 0 1
    outer loop
      vertex 74.0895 4.66214 53.5
      vertex 74.5 3 53.5
      vertex 74.125 5 53.5
    endloop
  endfacet
  facet normal -0 0 1
    outer loop
      vertex 73.9845 4.33905 53.5
      vertex 74.5 3 53.5
      vertex 74.0895 4.66214 53.5
    endloop
  endfacet
  facet normal -0 0 1
    outer loop
      vertex 73.8147 4.04485 53.5
      vertex 74.5 3 53.5
      vertex 73.9845 4.33905 53.5
    endloop
  endfacet
  facet normal -0 0 1
    outer loop
      vertex 73.5873 3.79239 53.5
      vertex 74.5 3 53.5
      vertex 73.8147 4.04485 53.5
    endloop
  endfacet
  facet normal -0 0 1
    outer loop
      vertex 73.3125 3.5927 53.5
      vertex 74.5 3 53.5
      vertex 73.5873 3.79239 53.5
    endloop
  endfacet
  facet normal -0 0 1
    outer loop
      vertex 73.0022 3.45453 53.5
      vertex 74.5 3 53.5
      vertex 73.3125 3.5927 53.5
    endloop
  endfacet
  facet normal -0 0 1
    outer loop
      vertex 72.6698 3.3839 53.5
      vertex 74.5 3 53.5
      vertex 73.0022 3.45453 53.5
    endloop
  endfacet
  facet normal -0 0 1
    outer loop
      vertex 72.3301 3.3839 53.5
      vertex 74.5 3 53.5
      vertex 72.6698 3.3839 53.5
    endloop
  endfacet
  facet normal 0 0 1
    outer loop
      vertex 70.9105 5.33784 53.5
      vertex -70.875 5 53.5
      vertex 70.875 5 53.5
    endloop
  endfacet
  facet normal 0 0 1
    outer loop
      vertex 70.875 5 53.5
      vertex -70.875 5 53.5
      vertex 70.9105 4.66214 53.5
    endloop
  endfacet
  facet normal 0 0 1
    outer loop
      vertex -70.9105 4.66214 53.5
      vertex 70.9105 4.66214 53.5
      vertex -70.875 5 53.5
    endloop
  endfacet
  facet normal 0 0 1
    outer loop
      vertex 70.9105 4.66214 53.5
      vertex -70.9105 4.66214 53.5
      vertex 71.0155 4.33905 53.5
    endloop
  endfacet
  facet normal 0 0 1
    outer loop
      vertex -71.0155 4.33905 53.5
      vertex 71.0155 4.33905 53.5
      vertex -70.9105 4.66214 53.5
    endloop
  endfacet
  facet normal 0 0 1
    outer loop
      vertex 71.0155 4.33905 53.5
      vertex -71.0155 4.33905 53.5
      vertex 71.1853 4.04485 53.5
    endloop
  endfacet
  facet normal 0 0 1
    outer loop
      vertex -71.1853 4.04485 53.5
      vertex 71.1853 4.04485 53.5
      vertex -71.0155 4.33905 53.5
    endloop
  endfacet
  facet normal 0 0 1
    outer loop
      vertex 71.1853 4.04485 53.5
      vertex -71.1853 4.04485 53.5
      vertex 71.4127 3.79239 53.5
    endloop
  endfacet
  facet normal 0 0 1
    outer loop
      vertex -71.4127 3.79239 53.5
      vertex 71.4127 3.79239 53.5
      vertex -71.1853 4.04485 53.5
    endloop
  endfacet
  facet normal 0 0 1
    outer loop
      vertex 71.4127 3.79239 53.5
      vertex -71.4127 3.79239 53.5
      vertex 71.6875 3.5927 53.5
    endloop
  endfacet
  facet normal 0 0 1
    outer loop
      vertex -71.6875 3.5927 53.5
      vertex 71.6875 3.5927 53.5
      vertex -71.4127 3.79239 53.5
    endloop
  endfacet
  facet normal 0 0 1
    outer loop
      vertex 71.6875 3.5927 53.5
      vertex -71.6875 3.5927 53.5
      vertex 71.9978 3.45453 53.5
    endloop
  endfacet
  facet normal 0 0 1
    outer loop
      vertex -71.9978 3.45453 53.5
      vertex 71.9978 3.45453 53.5
      vertex -71.6875 3.5927 53.5
    endloop
  endfacet
  facet normal 0 0 1
    outer loop
      vertex 71.9978 3.45453 53.5
      vertex -71.9978 3.45453 53.5
      vertex 72.3301 3.3839 53.5
    endloop
  endfacet
  facet normal 0 0 1
    outer loop
      vertex -72.3301 3.3839 53.5
      vertex 72.3301 3.3839 53.5
      vertex -71.9978 3.45453 53.5
    endloop
  endfacet
  facet normal 0 0 1
    outer loop
      vertex 72.3301 3.3839 53.5
      vertex -72.3301 3.3839 53.5
      vertex 74.5 3 53.5
    endloop
  endfacet
  facet normal 0 0 1
    outer loop
      vertex -74.5 3 53.5
      vertex -72.3301 3.3839 53.5
      vertex -72.6698 3.3839 53.5
    endloop
  endfacet
  facet normal 0 0 1
    outer loop
      vertex -72.3301 3.3839 53.5
      vertex -74.5 3 53.5
      vertex 74.5 3 53.5
    endloop
  endfacet
  facet normal 0 0 1
    outer loop
      vertex -73.0022 3.45453 53.5
      vertex -74.5 3 53.5
      vertex -72.6698 3.3839 53.5
    endloop
  endfacet
  facet normal 0 0 1
    outer loop
      vertex -73.3125 3.5927 53.5
      vertex -74.5 3 53.5
      vertex -73.0022 3.45453 53.5
    endloop
  endfacet
  facet normal 0 0 1
    outer loop
      vertex -73.5873 3.79239 53.5
      vertex -74.5 3 53.5
      vertex -73.3125 3.5927 53.5
    endloop
  endfacet
  facet normal 0 0 1
    outer loop
      vertex -73.8147 4.04485 53.5
      vertex -74.5 3 53.5
      vertex -73.5873 3.79239 53.5
    endloop
  endfacet
  facet normal 0 0 1
    outer loop
      vertex -73.9845 4.33905 53.5
      vertex -74.5 3 53.5
      vertex -73.8147 4.04485 53.5
    endloop
  endfacet
  facet normal 0 0 1
    outer loop
      vertex -74.0895 4.66214 53.5
      vertex -74.5 3 53.5
      vertex -73.9845 4.33905 53.5
    endloop
  endfacet
  facet normal 0 0 1
    outer loop
      vertex -74.125 5 53.5
      vertex -74.5 3 53.5
      vertex -74.0895 4.66214 53.5
    endloop
  endfacet
  facet normal 0 0 1
    outer loop
      vertex -74.0895 5.33784 53.5
      vertex -74.5 3 53.5
      vertex -74.125 5 53.5
    endloop
  endfacet
  facet normal 1 -0 0
    outer loop
      vertex 74.5 3 53.5
      vertex 74.5 67 51
      vertex 74.5 67 53.5
    endloop
  endfacet
  facet normal 1 0 0
    outer loop
      vertex 74.5 67 51
      vertex 74.5 3 53.5
      vertex 74.5 3 51
    endloop
  endfacet
  facet normal 0 1 -0
    outer loop
      vertex 74.5 67 51
      vertex -74.5 67 53.5
      vertex 74.5 67 53.5
    endloop
  endfacet
  facet normal 0 1 0
    outer loop
      vertex -74.5 67 53.5
      vertex 74.5 67 51
      vertex -74.5 67 51
    endloop
  endfacet
  facet normal 0 -1 0
    outer loop
      vertex -74.5 3 51
      vertex 74.5 3 53.5
      vertex -74.5 3 53.5
    endloop
  endfacet
  facet normal 0 -1 -0
    outer loop
      vertex 74.5 3 53.5
      vertex -74.5 3 51
      vertex 74.5 3 51
    endloop
  endfacet
  facet normal -0.406849 0.913496 0
    outer loop
      vertex -71.6875 63.5927 51
      vertex -71.9978 63.4545 53.5
      vertex -71.6875 63.5927 53.5
    endloop
  endfacet
  facet normal -0.406849 0.913496 0
    outer loop
      vertex -71.9978 63.4545 53.5
      vertex -71.6875 63.5927 51
      vertex -71.9978 63.4545 51
    endloop
  endfacet
  facet normal -0.587874 0.808952 0
    outer loop
      vertex -71.4127 63.7924 51
      vertex -71.6875 63.5927 53.5
      vertex -71.4127 63.7924 53.5
    endloop
  endfacet
  facet normal -0.587874 0.808952 0
    outer loop
      vertex -71.6875 63.5927 53.5
      vertex -71.4127 63.7924 51
      vertex -71.6875 63.5927 51
    endloop
  endfacet
  facet normal -0.742943 0.669355 0
    outer loop
      vertex -71.4127 63.7924 51
      vertex -71.1853 64.0448 53.5
      vertex -71.1853 64.0448 51
    endloop
  endfacet
  facet normal -0.742943 0.669355 0
    outer loop
      vertex -71.1853 64.0448 53.5
      vertex -71.4127 63.7924 51
      vertex -71.4127 63.7924 53.5
    endloop
  endfacet
  facet normal -0.866171 0.499748 0
    outer loop
      vertex -71.1853 64.0448 51
      vertex -71.0155 64.3391 53.5
      vertex -71.0155 64.3391 51
    endloop
  endfacet
  facet normal -0.866171 0.499748 0
    outer loop
      vertex -71.0155 64.3391 53.5
      vertex -71.1853 64.0448 51
      vertex -71.1853 64.0448 53.5
    endloop
  endfacet
  facet normal -0.951012 0.309153 0
    outer loop
      vertex -71.0155 64.3391 51
      vertex -70.9105 64.6621 53.5
      vertex -70.9105 64.6621 51
    endloop
  endfacet
  facet normal -0.951012 0.309153 0
    outer loop
      vertex -70.9105 64.6621 53.5
      vertex -71.0155 64.3391 51
      vertex -71.0155 64.3391 53.5
    endloop
  endfacet
  facet normal -0.994526 0.104486 0
    outer loop
      vertex -70.9105 64.6621 51
      vertex -70.875 65 53.5
      vertex -70.875 65 51
    endloop
  endfacet
  facet normal -0.994526 0.104486 0
    outer loop
      vertex -70.875 65 53.5
      vertex -70.9105 64.6621 51
      vertex -70.9105 64.6621 53.5
    endloop
  endfacet
  facet normal -0.994523 -0.104516 0
    outer loop
      vertex -70.875 65 51
      vertex -70.9105 65.3378 53.5
      vertex -70.9105 65.3378 51
    endloop
  endfacet
  facet normal -0.994523 -0.104516 0
    outer loop
      vertex -70.9105 65.3378 53.5
      vertex -70.875 65 51
      vertex -70.875 65 53.5
    endloop
  endfacet
  facet normal -0.951041 -0.309066 0
    outer loop
      vertex -70.9105 65.3378 51
      vertex -71.0155 65.6609 53.5
      vertex -71.0155 65.6609 51
    endloop
  endfacet
  facet normal -0.951041 -0.309066 0
    outer loop
      vertex -71.0155 65.6609 53.5
      vertex -70.9105 65.3378 51
      vertex -70.9105 65.3378 53.5
    endloop
  endfacet
  facet normal -0.866097 -0.499875 0
    outer loop
      vertex -71.0155 65.6609 51
      vertex -71.1853 65.9551 53.5
      vertex -71.1853 65.9551 51
    endloop
  endfacet
  facet normal -0.866097 -0.499875 0
    outer loop
      vertex -71.1853 65.9551 53.5
      vertex -71.0155 65.6609 51
      vertex -71.0155 65.6609 53.5
    endloop
  endfacet
  facet normal -0.743075 -0.669209 0
    outer loop
      vertex -71.1853 65.9551 51
      vertex -71.4127 66.2076 53.5
      vertex -71.4127 66.2076 51
    endloop
  endfacet
  facet normal -0.743075 -0.669209 0
    outer loop
      vertex -71.4127 66.2076 53.5
      vertex -71.1853 65.9551 51
      vertex -71.1853 65.9551 53.5
    endloop
  endfacet
  facet normal -0.587874 -0.808952 0
    outer loop
      vertex -71.6875 66.4073 51
      vertex -71.4127 66.2076 53.5
      vertex -71.6875 66.4073 53.5
    endloop
  endfacet
  facet normal -0.587874 -0.808952 -0
    outer loop
      vertex -71.4127 66.2076 53.5
      vertex -71.6875 66.4073 51
      vertex -71.4127 66.2076 51
    endloop
  endfacet
  facet normal -0.406849 -0.913496 0
    outer loop
      vertex -71.9978 66.5455 51
      vertex -71.6875 66.4073 53.5
      vertex -71.9978 66.5455 53.5
    endloop
  endfacet
  facet normal -0.406849 -0.913496 -0
    outer loop
      vertex -71.6875 66.4073 53.5
      vertex -71.9978 66.5455 51
      vertex -71.6875 66.4073 51
    endloop
  endfacet
  facet normal -0.20782 -0.978167 0
    outer loop
      vertex -72.3301 66.6161 51
      vertex -71.9978 66.5455 53.5
      vertex -72.3301 66.6161 53.5
    endloop
  endfacet
  facet normal -0.20782 -0.978167 -0
    outer loop
      vertex -71.9978 66.5455 53.5
      vertex -72.3301 66.6161 51
      vertex -71.9978 66.5455 51
    endloop
  endfacet
  facet normal 0 -1 0
    outer loop
      vertex -72.6698 66.6161 51
      vertex -72.3301 66.6161 53.5
      vertex -72.6698 66.6161 53.5
    endloop
  endfacet
  facet normal 0 -1 -0
    outer loop
      vertex -72.3301 66.6161 53.5
      vertex -72.6698 66.6161 51
      vertex -72.3301 66.6161 51
    endloop
  endfacet
  facet normal 0.20776 -0.97818 0
    outer loop
      vertex -73.0022 66.5455 51
      vertex -72.6698 66.6161 53.5
      vertex -73.0022 66.5455 53.5
    endloop
  endfacet
  facet normal 0.20776 -0.97818 0
    outer loop
      vertex -72.6698 66.6161 53.5
      vertex -73.0022 66.5455 51
      vertex -72.6698 66.6161 51
    endloop
  endfacet
  facet normal 0.406849 -0.913496 0
    outer loop
      vertex -73.3125 66.4073 51
      vertex -73.0022 66.5455 53.5
      vertex -73.3125 66.4073 53.5
    endloop
  endfacet
  facet normal 0.406849 -0.913496 0
    outer loop
      vertex -73.0022 66.5455 53.5
      vertex -73.3125 66.4073 51
      vertex -73.0022 66.5455 51
    endloop
  endfacet
  facet normal 0.587874 -0.808952 0
    outer loop
      vertex -73.5873 66.2076 51
      vertex -73.3125 66.4073 53.5
      vertex -73.5873 66.2076 53.5
    endloop
  endfacet
  facet normal 0.587874 -0.808952 0
    outer loop
      vertex -73.3125 66.4073 53.5
      vertex -73.5873 66.2076 51
      vertex -73.3125 66.4073 51
    endloop
  endfacet
  facet normal 0.743075 -0.669209 0
    outer loop
      vertex -73.8147 65.9551 53.5
      vertex -73.5873 66.2076 51
      vertex -73.5873 66.2076 53.5
    endloop
  endfacet
  facet normal 0.743075 -0.669209 0
    outer loop
      vertex -73.5873 66.2076 51
      vertex -73.8147 65.9551 53.5
      vertex -73.8147 65.9551 51
    endloop
  endfacet
  facet normal 0.866097 -0.499875 0
    outer loop
      vertex -73.9845 65.6609 53.5
      vertex -73.8147 65.9551 51
      vertex -73.8147 65.9551 53.5
    endloop
  endfacet
  facet normal 0.866097 -0.499875 0
    outer loop
      vertex -73.8147 65.9551 51
      vertex -73.9845 65.6609 53.5
      vertex -73.9845 65.6609 51
    endloop
  endfacet
  facet normal 0.951041 -0.309066 0
    outer loop
      vertex -74.0895 65.3378 53.5
      vertex -73.9845 65.6609 51
      vertex -73.9845 65.6609 53.5
    endloop
  endfacet
  facet normal 0.951041 -0.309066 0
    outer loop
      vertex -73.9845 65.6609 51
      vertex -74.0895 65.3378 53.5
      vertex -74.0895 65.3378 51
    endloop
  endfacet
  facet normal 0.994523 -0.104516 0
    outer loop
      vertex -74.125 65 53.5
      vertex -74.0895 65.3378 51
      vertex -74.0895 65.3378 53.5
    endloop
  endfacet
  facet normal 0.994523 -0.104516 0
    outer loop
      vertex -74.0895 65.3378 51
      vertex -74.125 65 53.5
      vertex -74.125 65 51
    endloop
  endfacet
  facet normal 0.994526 0.104486 0
    outer loop
      vertex -74.0895 64.6621 53.5
      vertex -74.125 65 51
      vertex -74.125 65 53.5
    endloop
  endfacet
  facet normal 0.994526 0.104486 0
    outer loop
      vertex -74.125 65 51
      vertex -74.0895 64.6621 53.5
      vertex -74.0895 64.6621 51
    endloop
  endfacet
  facet normal 0.951012 0.309153 0
    outer loop
      vertex -73.9845 64.3391 53.5
      vertex -74.0895 64.6621 51
      vertex -74.0895 64.6621 53.5
    endloop
  endfacet
  facet normal 0.951012 0.309153 0
    outer loop
      vertex -74.0895 64.6621 51
      vertex -73.9845 64.3391 53.5
      vertex -73.9845 64.3391 51
    endloop
  endfacet
  facet normal 0.866171 0.499748 0
    outer loop
      vertex -73.8147 64.0448 53.5
      vertex -73.9845 64.3391 51
      vertex -73.9845 64.3391 53.5
    endloop
  endfacet
  facet normal 0.866171 0.499748 0
    outer loop
      vertex -73.9845 64.3391 51
      vertex -73.8147 64.0448 53.5
      vertex -73.8147 64.0448 51
    endloop
  endfacet
  facet normal 0.742943 0.669355 0
    outer loop
      vertex -73.5873 63.7924 53.5
      vertex -73.8147 64.0448 51
      vertex -73.8147 64.0448 53.5
    endloop
  endfacet
  facet normal 0.742943 0.669355 0
    outer loop
      vertex -73.8147 64.0448 51
      vertex -73.5873 63.7924 53.5
      vertex -73.5873 63.7924 51
    endloop
  endfacet
  facet normal 0.587874 0.808952 -0
    outer loop
      vertex -73.3125 63.5927 51
      vertex -73.5873 63.7924 53.5
      vertex -73.3125 63.5927 53.5
    endloop
  endfacet
  facet normal 0.587874 0.808952 0
    outer loop
      vertex -73.5873 63.7924 53.5
      vertex -73.3125 63.5927 51
      vertex -73.5873 63.7924 51
    endloop
  endfacet
  facet normal 0.406849 0.913496 -0
    outer loop
      vertex -73.0022 63.4545 51
      vertex -73.3125 63.5927 53.5
      vertex -73.0022 63.4545 53.5
    endloop
  endfacet
  facet normal 0.406849 0.913496 0
    outer loop
      vertex -73.3125 63.5927 53.5
      vertex -73.0022 63.4545 51
      vertex -73.3125 63.5927 51
    endloop
  endfacet
  facet normal 0.20776 0.97818 -0
    outer loop
      vertex -72.6698 63.3839 51
      vertex -73.0022 63.4545 53.5
      vertex -72.6698 63.3839 53.5
    endloop
  endfacet
  facet normal 0.20776 0.97818 0
    outer loop
      vertex -73.0022 63.4545 53.5
      vertex -72.6698 63.3839 51
      vertex -73.0022 63.4545 51
    endloop
  endfacet
  facet normal 0 1 -0
    outer loop
      vertex -72.3301 63.3839 51
      vertex -72.6698 63.3839 53.5
      vertex -72.3301 63.3839 53.5
    endloop
  endfacet
  facet normal 0 1 0
    outer loop
      vertex -72.6698 63.3839 53.5
      vertex -72.3301 63.3839 51
      vertex -72.6698 63.3839 51
    endloop
  endfacet
  facet normal -0.20782 0.978167 0
    outer loop
      vertex -71.9978 63.4545 51
      vertex -72.3301 63.3839 53.5
      vertex -71.9978 63.4545 53.5
    endloop
  endfacet
  facet normal -0.20782 0.978167 0
    outer loop
      vertex -72.3301 63.3839 53.5
      vertex -71.9978 63.4545 51
      vertex -72.3301 63.3839 51
    endloop
  endfacet
  facet normal -0.406849 0.913496 0
    outer loop
      vertex 73.3125 63.5927 51
      vertex 73.0022 63.4545 53.5
      vertex 73.3125 63.5927 53.5
    endloop
  endfacet
  facet normal -0.406849 0.913496 0
    outer loop
      vertex 73.0022 63.4545 53.5
      vertex 73.3125 63.5927 51
      vertex 73.0022 63.4545 51
    endloop
  endfacet
  facet normal -0.587874 0.808952 0
    outer loop
      vertex 73.5873 63.7924 51
      vertex 73.3125 63.5927 53.5
      vertex 73.5873 63.7924 53.5
    endloop
  endfacet
  facet normal -0.587874 0.808952 0
    outer loop
      vertex 73.3125 63.5927 53.5
      vertex 73.5873 63.7924 51
      vertex 73.3125 63.5927 51
    endloop
  endfacet
  facet normal -0.742943 0.669355 0
    outer loop
      vertex 73.5873 63.7924 51
      vertex 73.8147 64.0448 53.5
      vertex 73.8147 64.0448 51
    endloop
  endfacet
  facet normal -0.742943 0.669355 0
    outer loop
      vertex 73.8147 64.0448 53.5
      vertex 73.5873 63.7924 51
      vertex 73.5873 63.7924 53.5
    endloop
  endfacet
  facet normal -0.866171 0.499748 0
    outer loop
      vertex 73.8147 64.0448 51
      vertex 73.9845 64.3391 53.5
      vertex 73.9845 64.3391 51
    endloop
  endfacet
  facet normal -0.866171 0.499748 0
    outer loop
      vertex 73.9845 64.3391 53.5
      vertex 73.8147 64.0448 51
      vertex 73.8147 64.0448 53.5
    endloop
  endfacet
  facet normal -0.951012 0.309153 0
    outer loop
      vertex 73.9845 64.3391 51
      vertex 74.0895 64.6621 53.5
      vertex 74.0895 64.6621 51
    endloop
  endfacet
  facet normal -0.951012 0.309153 0
    outer loop
      vertex 74.0895 64.6621 53.5
      vertex 73.9845 64.3391 51
      vertex 73.9845 64.3391 53.5
    endloop
  endfacet
  facet normal -0.994526 0.104486 0
    outer loop
      vertex 74.0895 64.6621 51
      vertex 74.125 65 53.5
      vertex 74.125 65 51
    endloop
  endfacet
  facet normal -0.994526 0.104486 0
    outer loop
      vertex 74.125 65 53.5
      vertex 74.0895 64.6621 51
      vertex 74.0895 64.6621 53.5
    endloop
  endfacet
  facet normal -0.994523 -0.104516 0
    outer loop
      vertex 74.125 65 51
      vertex 74.0895 65.3378 53.5
      vertex 74.0895 65.3378 51
    endloop
  endfacet
  facet normal -0.994523 -0.104516 0
    outer loop
      vertex 74.0895 65.3378 53.5
      vertex 74.125 65 51
      vertex 74.125 65 53.5
    endloop
  endfacet
  facet normal -0.951041 -0.309066 0
    outer loop
      vertex 74.0895 65.3378 51
      vertex 73.9845 65.6609 53.5
      vertex 73.9845 65.6609 51
    endloop
  endfacet
  facet normal -0.951041 -0.309066 0
    outer loop
      vertex 73.9845 65.6609 53.5
      vertex 74.0895 65.3378 51
      vertex 74.0895 65.3378 53.5
    endloop
  endfacet
  facet normal -0.866097 -0.499875 0
    outer loop
      vertex 73.9845 65.6609 51
      vertex 73.8147 65.9551 53.5
      vertex 73.8147 65.9551 51
    endloop
  endfacet
  facet normal -0.866097 -0.499875 0
    outer loop
      vertex 73.8147 65.9551 53.5
      vertex 73.9845 65.6609 51
      vertex 73.9845 65.6609 53.5
    endloop
  endfacet
  facet normal -0.743075 -0.669209 0
    outer loop
      vertex 73.8147 65.9551 51
      vertex 73.5873 66.2076 53.5
      vertex 73.5873 66.2076 51
    endloop
  endfacet
  facet normal -0.743075 -0.669209 0
    outer loop
      vertex 73.5873 66.2076 53.5
      vertex 73.8147 65.9551 51
      vertex 73.8147 65.9551 53.5
    endloop
  endfacet
  facet normal -0.587874 -0.808952 0
    outer loop
      vertex 73.3125 66.4073 51
      vertex 73.5873 66.2076 53.5
      vertex 73.3125 66.4073 53.5
    endloop
  endfacet
  facet normal -0.587874 -0.808952 -0
    outer loop
      vertex 73.5873 66.2076 53.5
      vertex 73.3125 66.4073 51
      vertex 73.5873 66.2076 51
    endloop
  endfacet
  facet normal -0.406849 -0.913496 0
    outer loop
      vertex 73.0022 66.5455 51
      vertex 73.3125 66.4073 53.5
      vertex 73.0022 66.5455 53.5
    endloop
  endfacet
  facet normal -0.406849 -0.913496 -0
    outer loop
      vertex 73.3125 66.4073 53.5
      vertex 73.0022 66.5455 51
      vertex 73.3125 66.4073 51
    endloop
  endfacet
  facet normal -0.20776 -0.97818 0
    outer loop
      vertex 72.6698 66.6161 51
      vertex 73.0022 66.5455 53.5
      vertex 72.6698 66.6161 53.5
    endloop
  endfacet
  facet normal -0.20776 -0.97818 -0
    outer loop
      vertex 73.0022 66.5455 53.5
      vertex 72.6698 66.6161 51
      vertex 73.0022 66.5455 51
    endloop
  endfacet
  facet normal 0 -1 0
    outer loop
      vertex 72.3301 66.6161 51
      vertex 72.6698 66.6161 53.5
      vertex 72.3301 66.6161 53.5
    endloop
  endfacet
  facet normal 0 -1 -0
    outer loop
      vertex 72.6698 66.6161 53.5
      vertex 72.3301 66.6161 51
      vertex 72.6698 66.6161 51
    endloop
  endfacet
  facet normal 0.20782 -0.978167 0
    outer loop
      vertex 71.9978 66.5455 51
      vertex 72.3301 66.6161 53.5
      vertex 71.9978 66.5455 53.5
    endloop
  endfacet
  facet normal 0.20782 -0.978167 0
    outer loop
      vertex 72.3301 66.6161 53.5
      vertex 71.9978 66.5455 51
      vertex 72.3301 66.6161 51
    endloop
  endfacet
  facet normal 0.406849 -0.913496 0
    outer loop
      vertex 71.6875 66.4073 51
      vertex 71.9978 66.5455 53.5
      vertex 71.6875 66.4073 53.5
    endloop
  endfacet
  facet normal 0.406849 -0.913496 0
    outer loop
      vertex 71.9978 66.5455 53.5
      vertex 71.6875 66.4073 51
      vertex 71.9978 66.5455 51
    endloop
  endfacet
  facet normal 0.587874 -0.808952 0
    outer loop
      vertex 71.4127 66.2076 51
      vertex 71.6875 66.4073 53.5
      vertex 71.4127 66.2076 53.5
    endloop
  endfacet
  facet normal 0.587874 -0.808952 0
    outer loop
      vertex 71.6875 66.4073 53.5
      vertex 71.4127 66.2076 51
      vertex 71.6875 66.4073 51
    endloop
  endfacet
  facet normal 0.743075 -0.669209 0
    outer loop
      vertex 71.1853 65.9551 53.5
      vertex 71.4127 66.2076 51
      vertex 71.4127 66.2076 53.5
    endloop
  endfacet
  facet normal 0.743075 -0.669209 0
    outer loop
      vertex 71.4127 66.2076 51
      vertex 71.1853 65.9551 53.5
      vertex 71.1853 65.9551 51
    endloop
  endfacet
  facet normal 0.866097 -0.499875 0
    outer loop
      vertex 71.0155 65.6609 53.5
      vertex 71.1853 65.9551 51
      vertex 71.1853 65.9551 53.5
    endloop
  endfacet
  facet normal 0.866097 -0.499875 0
    outer loop
      vertex 71.1853 65.9551 51
      vertex 71.0155 65.6609 53.5
      vertex 71.0155 65.6609 51
    endloop
  endfacet
  facet normal 0.951041 -0.309066 0
    outer loop
      vertex 70.9105 65.3378 53.5
      vertex 71.0155 65.6609 51
      vertex 71.0155 65.6609 53.5
    endloop
  endfacet
  facet normal 0.951041 -0.309066 0
    outer loop
      vertex 71.0155 65.6609 51
      vertex 70.9105 65.3378 53.5
      vertex 70.9105 65.3378 51
    endloop
  endfacet
  facet normal 0.994523 -0.104516 0
    outer loop
      vertex 70.875 65 53.5
      vertex 70.9105 65.3378 51
      vertex 70.9105 65.3378 53.5
    endloop
  endfacet
  facet normal 0.994523 -0.104516 0
    outer loop
      vertex 70.9105 65.3378 51
      vertex 70.875 65 53.5
      vertex 70.875 65 51
    endloop
  endfacet
  facet normal 0.994526 0.104486 0
    outer loop
      vertex 70.9105 64.6621 53.5
      vertex 70.875 65 51
      vertex 70.875 65 53.5
    endloop
  endfacet
  facet normal 0.994526 0.104486 0
    outer loop
      vertex 70.875 65 51
      vertex 70.9105 64.6621 53.5
      vertex 70.9105 64.6621 51
    endloop
  endfacet
  facet normal 0.951012 0.309153 0
    outer loop
      vertex 71.0155 64.3391 53.5
      vertex 70.9105 64.6621 51
      vertex 70.9105 64.6621 53.5
    endloop
  endfacet
  facet normal 0.951012 0.309153 0
    outer loop
      vertex 70.9105 64.6621 51
      vertex 71.0155 64.3391 53.5
      vertex 71.0155 64.3391 51
    endloop
  endfacet
  facet normal 0.866171 0.499748 0
    outer loop
      vertex 71.1853 64.0448 53.5
      vertex 71.0155 64.3391 51
      vertex 71.0155 64.3391 53.5
    endloop
  endfacet
  facet normal 0.866171 0.499748 0
    outer loop
      vertex 71.0155 64.3391 51
      vertex 71.1853 64.0448 53.5
      vertex 71.1853 64.0448 51
    endloop
  endfacet
  facet normal 0.742943 0.669355 0
    outer loop
      vertex 71.4127 63.7924 53.5
      vertex 71.1853 64.0448 51
      vertex 71.1853 64.0448 53.5
    endloop
  endfacet
  facet normal 0.742943 0.669355 0
    outer loop
      vertex 71.1853 64.0448 51
      vertex 71.4127 63.7924 53.5
      vertex 71.4127 63.7924 51
    endloop
  endfacet
  facet normal 0.587874 0.808952 -0
    outer loop
      vertex 71.6875 63.5927 51
      vertex 71.4127 63.7924 53.5
      vertex 71.6875 63.5927 53.5
    endloop
  endfacet
  facet normal 0.587874 0.808952 0
    outer loop
      vertex 71.4127 63.7924 53.5
      vertex 71.6875 63.5927 51
      vertex 71.4127 63.7924 51
    endloop
  endfacet
  facet normal 0.406849 0.913496 -0
    outer loop
      vertex 71.9978 63.4545 51
      vertex 71.6875 63.5927 53.5
      vertex 71.9978 63.4545 53.5
    endloop
  endfacet
  facet normal 0.406849 0.913496 0
    outer loop
      vertex 71.6875 63.5927 53.5
      vertex 71.9978 63.4545 51
      vertex 71.6875 63.5927 51
    endloop
  endfacet
  facet normal 0.20782 0.978167 -0
    outer loop
      vertex 72.3301 63.3839 51
      vertex 71.9978 63.4545 53.5
      vertex 72.3301 63.3839 53.5
    endloop
  endfacet
  facet normal 0.20782 0.978167 0
    outer loop
      vertex 71.9978 63.4545 53.5
      vertex 72.3301 63.3839 51
      vertex 71.9978 63.4545 51
    endloop
  endfacet
  facet normal 0 1 -0
    outer loop
      vertex 72.6698 63.3839 51
      vertex 72.3301 63.3839 53.5
      vertex 72.6698 63.3839 53.5
    endloop
  endfacet
  facet normal 0 1 0
    outer loop
      vertex 72.3301 63.3839 53.5
      vertex 72.6698 63.3839 51
      vertex 72.3301 63.3839 51
    endloop
  endfacet
  facet normal -0.20776 0.97818 0
    outer loop
      vertex 73.0022 63.4545 51
      vertex 72.6698 63.3839 53.5
      vertex 73.0022 63.4545 53.5
    endloop
  endfacet
  facet normal -0.20776 0.97818 0
    outer loop
      vertex 72.6698 63.3839 53.5
      vertex 73.0022 63.4545 51
      vertex 72.6698 63.3839 51
    endloop
  endfacet
  facet normal -0.406775 0.913528 0
    outer loop
      vertex -71.6875 3.5927 51
      vertex -71.9978 3.45453 53.5
      vertex -71.6875 3.5927 53.5
    endloop
  endfacet
  facet normal -0.406775 0.913528 0
    outer loop
      vertex -71.9978 3.45453 53.5
      vertex -71.6875 3.5927 51
      vertex -71.9978 3.45453 51
    endloop
  endfacet
  facet normal -0.587855 0.808966 0
    outer loop
      vertex -71.4127 3.79239 51
      vertex -71.6875 3.5927 53.5
      vertex -71.4127 3.79239 53.5
    endloop
  endfacet
  facet normal -0.587855 0.808966 0
    outer loop
      vertex -71.6875 3.5927 53.5
      vertex -71.4127 3.79239 51
      vertex -71.6875 3.5927 51
    endloop
  endfacet
  facet normal -0.743022 0.669267 0
    outer loop
      vertex -71.4127 3.79239 51
      vertex -71.1853 4.04485 53.5
      vertex -71.1853 4.04485 51
    endloop
  endfacet
  facet normal -0.743022 0.669267 0
    outer loop
      vertex -71.1853 4.04485 53.5
      vertex -71.4127 3.79239 51
      vertex -71.4127 3.79239 53.5
    endloop
  endfacet
  facet normal -0.866097 0.499875 0
    outer loop
      vertex -71.1853 4.04485 51
      vertex -71.0155 4.33905 53.5
      vertex -71.0155 4.33905 51
    endloop
  endfacet
  facet normal -0.866097 0.499875 0
    outer loop
      vertex -71.0155 4.33905 53.5
      vertex -71.1853 4.04485 51
      vertex -71.1853 4.04485 53.5
    endloop
  endfacet
  facet normal -0.951038 0.309075 0
    outer loop
      vertex -71.0155 4.33905 51
      vertex -70.9105 4.66214 53.5
      vertex -70.9105 4.66214 51
    endloop
  endfacet
  facet normal -0.951038 0.309075 0
    outer loop
      vertex -70.9105 4.66214 53.5
      vertex -71.0155 4.33905 51
      vertex -71.0155 4.33905 53.5
    endloop
  endfacet
  facet normal -0.994525 0.104498 0
    outer loop
      vertex -70.9105 4.66214 51
      vertex -70.875 5 53.5
      vertex -70.875 5 51
    endloop
  endfacet
  facet normal -0.994525 0.104498 0
    outer loop
      vertex -70.875 5 53.5
      vertex -70.9105 4.66214 51
      vertex -70.9105 4.66214 53.5
    endloop
  endfacet
  facet normal -0.994524 -0.104504 0
    outer loop
      vertex -70.875 5 51
      vertex -70.9105 5.33784 53.5
      vertex -70.9105 5.33784 51
    endloop
  endfacet
  facet normal -0.994524 -0.104504 0
    outer loop
      vertex -70.9105 5.33784 53.5
      vertex -70.875 5 51
      vertex -70.875 5 53.5
    endloop
  endfacet
  facet normal -0.951038 -0.309075 0
    outer loop
      vertex -70.9105 5.33784 51
      vertex -71.0155 5.66093 53.5
      vertex -71.0155 5.66093 51
    endloop
  endfacet
  facet normal -0.951038 -0.309075 0
    outer loop
      vertex -71.0155 5.66093 53.5
      vertex -70.9105 5.33784 51
      vertex -70.9105 5.33784 53.5
    endloop
  endfacet
  facet normal -0.866105 -0.499863 0
    outer loop
      vertex -71.0155 5.66093 51
      vertex -71.1853 5.95514 53.5
      vertex -71.1853 5.95514 51
    endloop
  endfacet
  facet normal -0.866105 -0.499863 0
    outer loop
      vertex -71.1853 5.95514 53.5
      vertex -71.0155 5.66093 51
      vertex -71.0155 5.66093 53.5
    endloop
  endfacet
  facet normal -0.743022 -0.669267 0
    outer loop
      vertex -71.1853 5.95514 51
      vertex -71.4127 6.2076 53.5
      vertex -71.4127 6.2076 51
    endloop
  endfacet
  facet normal -0.743022 -0.669267 0
    outer loop
      vertex -71.4127 6.2076 53.5
      vertex -71.1853 5.95514 51
      vertex -71.1853 5.95514 53.5
    endloop
  endfacet
  facet normal -0.587855 -0.808966 0
    outer loop
      vertex -71.6875 6.40729 51
      vertex -71.4127 6.2076 53.5
      vertex -71.6875 6.40729 53.5
    endloop
  endfacet
  facet normal -0.587855 -0.808966 -0
    outer loop
      vertex -71.4127 6.2076 53.5
      vertex -71.6875 6.40729 51
      vertex -71.4127 6.2076 51
    endloop
  endfacet
  facet normal -0.406775 -0.913528 0
    outer loop
      vertex -71.9978 6.54546 51
      vertex -71.6875 6.40729 53.5
      vertex -71.9978 6.54546 53.5
    endloop
  endfacet
  facet normal -0.406775 -0.913528 -0
    outer loop
      vertex -71.6875 6.40729 53.5
      vertex -71.9978 6.54546 51
      vertex -71.6875 6.40729 51
    endloop
  endfacet
  facet normal -0.207905 -0.978149 0
    outer loop
      vertex -72.3301 6.61609 51
      vertex -71.9978 6.54546 53.5
      vertex -72.3301 6.61609 53.5
    endloop
  endfacet
  facet normal -0.207905 -0.978149 -0
    outer loop
      vertex -71.9978 6.54546 53.5
      vertex -72.3301 6.61609 51
      vertex -71.9978 6.54546 51
    endloop
  endfacet
  facet normal 0 -1 0
    outer loop
      vertex -72.6698 6.61609 51
      vertex -72.3301 6.61609 53.5
      vertex -72.6698 6.61609 53.5
    endloop
  endfacet
  facet normal 0 -1 -0
    outer loop
      vertex -72.3301 6.61609 53.5
      vertex -72.6698 6.61609 51
      vertex -72.3301 6.61609 51
    endloop
  endfacet
  facet normal 0.207845 -0.978162 0
    outer loop
      vertex -73.0022 6.54546 51
      vertex -72.6698 6.61609 53.5
      vertex -73.0022 6.54546 53.5
    endloop
  endfacet
  facet normal 0.207845 -0.978162 0
    outer loop
      vertex -72.6698 6.61609 53.5
      vertex -73.0022 6.54546 51
      vertex -72.6698 6.61609 51
    endloop
  endfacet
  facet normal 0.406775 -0.913528 0
    outer loop
      vertex -73.3125 6.40729 51
      vertex -73.0022 6.54546 53.5
      vertex -73.3125 6.40729 53.5
    endloop
  endfacet
  facet normal 0.406775 -0.913528 0
    outer loop
      vertex -73.0022 6.54546 53.5
      vertex -73.3125 6.40729 51
      vertex -73.0022 6.54546 51
    endloop
  endfacet
  facet normal 0.587855 -0.808966 0
    outer loop
      vertex -73.5873 6.2076 51
      vertex -73.3125 6.40729 53.5
      vertex -73.5873 6.2076 53.5
    endloop
  endfacet
  facet normal 0.587855 -0.808966 0
    outer loop
      vertex -73.3125 6.40729 53.5
      vertex -73.5873 6.2076 51
      vertex -73.3125 6.40729 51
    endloop
  endfacet
  facet normal 0.743022 -0.669267 0
    outer loop
      vertex -73.8147 5.95514 53.5
      vertex -73.5873 6.2076 51
      vertex -73.5873 6.2076 53.5
    endloop
  endfacet
  facet normal 0.743022 -0.669267 0
    outer loop
      vertex -73.5873 6.2076 51
      vertex -73.8147 5.95514 53.5
      vertex -73.8147 5.95514 51
    endloop
  endfacet
  facet normal 0.866105 -0.499863 0
    outer loop
      vertex -73.9845 5.66093 53.5
      vertex -73.8147 5.95514 51
      vertex -73.8147 5.95514 53.5
    endloop
  endfacet
  facet normal 0.866105 -0.499863 0
    outer loop
      vertex -73.8147 5.95514 51
      vertex -73.9845 5.66093 53.5
      vertex -73.9845 5.66093 51
    endloop
  endfacet
  facet normal 0.951038 -0.309075 0
    outer loop
      vertex -74.0895 5.33784 53.5
      vertex -73.9845 5.66093 51
      vertex -73.9845 5.66093 53.5
    endloop
  endfacet
  facet normal 0.951038 -0.309075 0
    outer loop
      vertex -73.9845 5.66093 51
      vertex -74.0895 5.33784 53.5
      vertex -74.0895 5.33784 51
    endloop
  endfacet
  facet normal 0.994524 -0.104504 0
    outer loop
      vertex -74.125 5 53.5
      vertex -74.0895 5.33784 51
      vertex -74.0895 5.33784 53.5
    endloop
  endfacet
  facet normal 0.994524 -0.104504 0
    outer loop
      vertex -74.0895 5.33784 51
      vertex -74.125 5 53.5
      vertex -74.125 5 51
    endloop
  endfacet
  facet normal 0.994525 0.104498 0
    outer loop
      vertex -74.0895 4.66214 53.5
      vertex -74.125 5 51
      vertex -74.125 5 53.5
    endloop
  endfacet
  facet normal 0.994525 0.104498 0
    outer loop
      vertex -74.125 5 51
      vertex -74.0895 4.66214 53.5
      vertex -74.0895 4.66214 51
    endloop
  endfacet
  facet normal 0.951038 0.309075 0
    outer loop
      vertex -73.9845 4.33905 53.5
      vertex -74.0895 4.66214 51
      vertex -74.0895 4.66214 53.5
    endloop
  endfacet
  facet normal 0.951038 0.309075 0
    outer loop
      vertex -74.0895 4.66214 51
      vertex -73.9845 4.33905 53.5
      vertex -73.9845 4.33905 51
    endloop
  endfacet
  facet normal 0.866097 0.499875 0
    outer loop
      vertex -73.8147 4.04485 53.5
      vertex -73.9845 4.33905 51
      vertex -73.9845 4.33905 53.5
    endloop
  endfacet
  facet normal 0.866097 0.499875 0
    outer loop
      vertex -73.9845 4.33905 51
      vertex -73.8147 4.04485 53.5
      vertex -73.8147 4.04485 51
    endloop
  endfacet
  facet normal 0.743022 0.669267 0
    outer loop
      vertex -73.5873 3.79239 53.5
      vertex -73.8147 4.04485 51
      vertex -73.8147 4.04485 53.5
    endloop
  endfacet
  facet normal 0.743022 0.669267 0
    outer loop
      vertex -73.8147 4.04485 51
      vertex -73.5873 3.79239 53.5
      vertex -73.5873 3.79239 51
    endloop
  endfacet
  facet normal 0.587855 0.808966 -0
    outer loop
      vertex -73.3125 3.5927 51
      vertex -73.5873 3.79239 53.5
      vertex -73.3125 3.5927 53.5
    endloop
  endfacet
  facet normal 0.587855 0.808966 0
    outer loop
      vertex -73.5873 3.79239 53.5
      vertex -73.3125 3.5927 51
      vertex -73.5873 3.79239 51
    endloop
  endfacet
  facet normal 0.406775 0.913528 -0
    outer loop
      vertex -73.0022 3.45453 51
      vertex -73.3125 3.5927 53.5
      vertex -73.0022 3.45453 53.5
    endloop
  endfacet
  facet normal 0.406775 0.913528 0
    outer loop
      vertex -73.3125 3.5927 53.5
      vertex -73.0022 3.45453 51
      vertex -73.3125 3.5927 51
    endloop
  endfacet
  facet normal 0.207845 0.978162 -0
    outer loop
      vertex -72.6698 3.3839 51
      vertex -73.0022 3.45453 53.5
      vertex -72.6698 3.3839 53.5
    endloop
  endfacet
  facet normal 0.207845 0.978162 0
    outer loop
      vertex -73.0022 3.45453 53.5
      vertex -72.6698 3.3839 51
      vertex -73.0022 3.45453 51
    endloop
  endfacet
  facet normal 0 1 -0
    outer loop
      vertex -72.3301 3.3839 51
      vertex -72.6698 3.3839 53.5
      vertex -72.3301 3.3839 53.5
    endloop
  endfacet
  facet normal 0 1 0
    outer loop
      vertex -72.6698 3.3839 53.5
      vertex -72.3301 3.3839 51
      vertex -72.6698 3.3839 51
    endloop
  endfacet
  facet normal -0.207905 0.978149 0
    outer loop
      vertex -71.9978 3.45453 51
      vertex -72.3301 3.3839 53.5
      vertex -71.9978 3.45453 53.5
    endloop
  endfacet
  facet normal -0.207905 0.978149 0
    outer loop
      vertex -72.3301 3.3839 53.5
      vertex -71.9978 3.45453 51
      vertex -72.3301 3.3839 51
    endloop
  endfacet
  facet normal -0.406775 0.913528 0
    outer loop
      vertex 73.3125 3.5927 51
      vertex 73.0022 3.45453 53.5
      vertex 73.3125 3.5927 53.5
    endloop
  endfacet
  facet normal -0.406775 0.913528 0
    outer loop
      vertex 73.0022 3.45453 53.5
      vertex 73.3125 3.5927 51
      vertex 73.0022 3.45453 51
    endloop
  endfacet
  facet normal -0.587855 0.808966 0
    outer loop
      vertex 73.5873 3.79239 51
      vertex 73.3125 3.5927 53.5
      vertex 73.5873 3.79239 53.5
    endloop
  endfacet
  facet normal -0.587855 0.808966 0
    outer loop
      vertex 73.3125 3.5927 53.5
      vertex 73.5873 3.79239 51
      vertex 73.3125 3.5927 51
    endloop
  endfacet
  facet normal -0.743022 0.669267 0
    outer loop
      vertex 73.5873 3.79239 51
      vertex 73.8147 4.04485 53.5
      vertex 73.8147 4.04485 51
    endloop
  endfacet
  facet normal -0.743022 0.669267 0
    outer loop
      vertex 73.8147 4.04485 53.5
      vertex 73.5873 3.79239 51
      vertex 73.5873 3.79239 53.5
    endloop
  endfacet
  facet normal -0.866097 0.499875 0
    outer loop
      vertex 73.8147 4.04485 51
      vertex 73.9845 4.33905 53.5
      vertex 73.9845 4.33905 51
    endloop
  endfacet
  facet normal -0.866097 0.499875 0
    outer loop
      vertex 73.9845 4.33905 53.5
      vertex 73.8147 4.04485 51
      vertex 73.8147 4.04485 53.5
    endloop
  endfacet
  facet normal -0.951038 0.309075 0
    outer loop
      vertex 73.9845 4.33905 51
      vertex 74.0895 4.66214 53.5
      vertex 74.0895 4.66214 51
    endloop
  endfacet
  facet normal -0.951038 0.309075 0
    outer loop
      vertex 74.0895 4.66214 53.5
      vertex 73.9845 4.33905 51
      vertex 73.9845 4.33905 53.5
    endloop
  endfacet
  facet normal -0.994525 0.104498 0
    outer loop
      vertex 74.0895 4.66214 51
      vertex 74.125 5 53.5
      vertex 74.125 5 51
    endloop
  endfacet
  facet normal -0.994525 0.104498 0
    outer loop
      vertex 74.125 5 53.5
      vertex 74.0895 4.66214 51
      vertex 74.0895 4.66214 53.5
    endloop
  endfacet
  facet normal -0.994524 -0.104504 0
    outer loop
      vertex 74.125 5 51
      vertex 74.0895 5.33784 53.5
      vertex 74.0895 5.33784 51
    endloop
  endfacet
  facet normal -0.994524 -0.104504 0
    outer loop
      vertex 74.0895 5.33784 53.5
      vertex 74.125 5 51
      vertex 74.125 5 53.5
    endloop
  endfacet
  facet normal -0.951038 -0.309075 0
    outer loop
      vertex 74.0895 5.33784 51
      vertex 73.9845 5.66093 53.5
      vertex 73.9845 5.66093 51
    endloop
  endfacet
  facet normal -0.951038 -0.309075 0
    outer loop
      vertex 73.9845 5.66093 53.5
      vertex 74.0895 5.33784 51
      vertex 74.0895 5.33784 53.5
    endloop
  endfacet
  facet normal -0.866105 -0.499863 0
    outer loop
      vertex 73.9845 5.66093 51
      vertex 73.8147 5.95514 53.5
      vertex 73.8147 5.95514 51
    endloop
  endfacet
  facet normal -0.866105 -0.499863 0
    outer loop
      vertex 73.8147 5.95514 53.5
      vertex 73.9845 5.66093 51
      vertex 73.9845 5.66093 53.5
    endloop
  endfacet
  facet normal -0.743022 -0.669267 0
    outer loop
      vertex 73.8147 5.95514 51
      vertex 73.5873 6.2076 53.5
      vertex 73.5873 6.2076 51
    endloop
  endfacet
  facet normal -0.743022 -0.669267 0
    outer loop
      vertex 73.5873 6.2076 53.5
      vertex 73.8147 5.95514 51
      vertex 73.8147 5.95514 53.5
    endloop
  endfacet
  facet normal -0.587855 -0.808966 0
    outer loop
      vertex 73.3125 6.40729 51
      vertex 73.5873 6.2076 53.5
      vertex 73.3125 6.40729 53.5
    endloop
  endfacet
  facet normal -0.587855 -0.808966 -0
    outer loop
      vertex 73.5873 6.2076 53.5
      vertex 73.3125 6.40729 51
      vertex 73.5873 6.2076 51
    endloop
  endfacet
  facet normal -0.406775 -0.913528 0
    outer loop
      vertex 73.0022 6.54546 51
      vertex 73.3125 6.40729 53.5
      vertex 73.0022 6.54546 53.5
    endloop
  endfacet
  facet normal -0.406775 -0.913528 -0
    outer loop
      vertex 73.3125 6.40729 53.5
      vertex 73.0022 6.54546 51
      vertex 73.3125 6.40729 51
    endloop
  endfacet
  facet normal -0.207845 -0.978162 0
    outer loop
      vertex 72.6698 6.61609 51
      vertex 73.0022 6.54546 53.5
      vertex 72.6698 6.61609 53.5
    endloop
  endfacet
  facet normal -0.207845 -0.978162 -0
    outer loop
      vertex 73.0022 6.54546 53.5
      vertex 72.6698 6.61609 51
      vertex 73.0022 6.54546 51
    endloop
  endfacet
  facet normal 0 -1 0
    outer loop
      vertex 72.3301 6.61609 51
      vertex 72.6698 6.61609 53.5
      vertex 72.3301 6.61609 53.5
    endloop
  endfacet
  facet normal 0 -1 -0
    outer loop
      vertex 72.6698 6.61609 53.5
      vertex 72.3301 6.61609 51
      vertex 72.6698 6.61609 51
    endloop
  endfacet
  facet normal 0.207905 -0.978149 0
    outer loop
      vertex 71.9978 6.54546 51
      vertex 72.3301 6.61609 53.5
      vertex 71.9978 6.54546 53.5
    endloop
  endfacet
  facet normal 0.207905 -0.978149 0
    outer loop
      vertex 72.3301 6.61609 53.5
      vertex 71.9978 6.54546 51
      vertex 72.3301 6.61609 51
    endloop
  endfacet
  facet normal 0.406775 -0.913528 0
    outer loop
      vertex 71.6875 6.40729 51
      vertex 71.9978 6.54546 53.5
      vertex 71.6875 6.40729 53.5
    endloop
  endfacet
  facet normal 0.406775 -0.913528 0
    outer loop
      vertex 71.9978 6.54546 53.5
      vertex 71.6875 6.40729 51
      vertex 71.9978 6.54546 51
    endloop
  endfacet
  facet normal 0.587855 -0.808966 0
    outer loop
      vertex 71.4127 6.2076 51
      vertex 71.6875 6.40729 53.5
      vertex 71.4127 6.2076 53.5
    endloop
  endfacet
  facet normal 0.587855 -0.808966 0
    outer loop
      vertex 71.6875 6.40729 53.5
      vertex 71.4127 6.2076 51
      vertex 71.6875 6.40729 51
    endloop
  endfacet
  facet normal 0.743022 -0.669267 0
    outer loop
      vertex 71.1853 5.95514 53.5
      vertex 71.4127 6.2076 51
      vertex 71.4127 6.2076 53.5
    endloop
  endfacet
  facet normal 0.743022 -0.669267 0
    outer loop
      vertex 71.4127 6.2076 51
      vertex 71.1853 5.95514 53.5
      vertex 71.1853 5.95514 51
    endloop
  endfacet
  facet normal 0.866105 -0.499863 0
    outer loop
      vertex 71.0155 5.66093 53.5
      vertex 71.1853 5.95514 51
      vertex 71.1853 5.95514 53.5
    endloop
  endfacet
  facet normal 0.866105 -0.499863 0
    outer loop
      vertex 71.1853 5.95514 51
      vertex 71.0155 5.66093 53.5
      vertex 71.0155 5.66093 51
    endloop
  endfacet
  facet normal 0.951038 -0.309075 0
    outer loop
      vertex 70.9105 5.33784 53.5
      vertex 71.0155 5.66093 51
      vertex 71.0155 5.66093 53.5
    endloop
  endfacet
  facet normal 0.951038 -0.309075 0
    outer loop
      vertex 71.0155 5.66093 51
      vertex 70.9105 5.33784 53.5
      vertex 70.9105 5.33784 51
    endloop
  endfacet
  facet normal 0.994524 -0.104504 0
    outer loop
      vertex 70.875 5 53.5
      vertex 70.9105 5.33784 51
      vertex 70.9105 5.33784 53.5
    endloop
  endfacet
  facet normal 0.994524 -0.104504 0
    outer loop
      vertex 70.9105 5.33784 51
      vertex 70.875 5 53.5
      vertex 70.875 5 51
    endloop
  endfacet
  facet normal 0.994525 0.104498 0
    outer loop
      vertex 70.9105 4.66214 53.5
      vertex 70.875 5 51
      vertex 70.875 5 53.5
    endloop
  endfacet
  facet normal 0.994525 0.104498 0
    outer loop
      vertex 70.875 5 51
      vertex 70.9105 4.66214 53.5
      vertex 70.9105 4.66214 51
    endloop
  endfacet
  facet normal 0.951038 0.309075 0
    outer loop
      vertex 71.0155 4.33905 53.5
      vertex 70.9105 4.66214 51
      vertex 70.9105 4.66214 53.5
    endloop
  endfacet
  facet normal 0.951038 0.309075 0
    outer loop
      vertex 70.9105 4.66214 51
      vertex 71.0155 4.33905 53.5
      vertex 71.0155 4.33905 51
    endloop
  endfacet
  facet normal 0.866097 0.499875 0
    outer loop
      vertex 71.1853 4.04485 53.5
      vertex 71.0155 4.33905 51
      vertex 71.0155 4.33905 53.5
    endloop
  endfacet
  facet normal 0.866097 0.499875 0
    outer loop
      vertex 71.0155 4.33905 51
      vertex 71.1853 4.04485 53.5
      vertex 71.1853 4.04485 51
    endloop
  endfacet
  facet normal 0.743022 0.669267 0
    outer loop
      vertex 71.4127 3.79239 53.5
      vertex 71.1853 4.04485 51
      vertex 71.1853 4.04485 53.5
    endloop
  endfacet
  facet normal 0.743022 0.669267 0
    outer loop
      vertex 71.1853 4.04485 51
      vertex 71.4127 3.79239 53.5
      vertex 71.4127 3.79239 51
    endloop
  endfacet
  facet normal 0.587855 0.808966 -0
    outer loop
      vertex 71.6875 3.5927 51
      vertex 71.4127 3.79239 53.5
      vertex 71.6875 3.5927 53.5
    endloop
  endfacet
  facet normal 0.587855 0.808966 0
    outer loop
      vertex 71.4127 3.79239 53.5
      vertex 71.6875 3.5927 51
      vertex 71.4127 3.79239 51
    endloop
  endfacet
  facet normal 0.406775 0.913528 -0
    outer loop
      vertex 71.9978 3.45453 51
      vertex 71.6875 3.5927 53.5
      vertex 71.9978 3.45453 53.5
    endloop
  endfacet
  facet normal 0.406775 0.913528 0
    outer loop
      vertex 71.6875 3.5927 53.5
      vertex 71.9978 3.45453 51
      vertex 71.6875 3.5927 51
    endloop
  endfacet
  facet normal 0.207905 0.978149 -0
    outer loop
      vertex 72.3301 3.3839 51
      vertex 71.9978 3.45453 53.5
      vertex 72.3301 3.3839 53.5
    endloop
  endfacet
  facet normal 0.207905 0.978149 0
    outer loop
      vertex 71.9978 3.45453 53.5
      vertex 72.3301 3.3839 51
      vertex 71.9978 3.45453 51
    endloop
  endfacet
  facet normal 0 1 -0
    outer loop
      vertex 72.6698 3.3839 51
      vertex 72.3301 3.3839 53.5
      vertex 72.6698 3.3839 53.5
    endloop
  endfacet
  facet normal 0 1 0
    outer loop
      vertex 72.3301 3.3839 53.5
      vertex 72.6698 3.3839 51
      vertex 72.3301 3.3839 51
    endloop
  endfacet
  facet normal -0.207845 0.978162 0
    outer loop
      vertex 73.0022 3.45453 51
      vertex 72.6698 3.3839 53.5
      vertex 73.0022 3.45453 53.5
    endloop
  endfacet
  facet normal -0.207845 0.978162 0
    outer loop
      vertex 72.6698 3.3839 53.5
      vertex 73.0022 3.45453 51
      vertex 72.6698 3.3839 51
    endloop
  endfacet
  facet normal 0 0 -1
    outer loop
      vertex 71.0155 5.66093 51
      vertex -71.0155 5.66093 51
      vertex 71.0155 64.3391 51
    endloop
  endfacet
  facet normal 0 0 -1
    outer loop
      vertex 71.0155 64.3391 51
      vertex -70.9105 64.6621 51
      vertex -70.875 65 51
    endloop
  endfacet
  facet normal 0 0 -1
    outer loop
      vertex -71.0155 64.3391 51
      vertex 71.0155 64.3391 51
      vertex -71.0155 5.66093 51
    endloop
  endfacet
  facet normal 0 0 -1
    outer loop
      vertex 71.0155 64.3391 51
      vertex -71.0155 64.3391 51
      vertex -70.9105 64.6621 51
    endloop
  endfacet
  facet normal 0 0 -1
    outer loop
      vertex -71.1853 5.95514 51
      vertex -71.0155 64.3391 51
      vertex -71.0155 5.66093 51
    endloop
  endfacet
  facet normal 0 0 -1
    outer loop
      vertex -71.1853 5.95514 51
      vertex -71.1853 64.0448 51
      vertex -71.0155 64.3391 51
    endloop
  endfacet
  facet normal 0 0 -1
    outer loop
      vertex -71.4127 6.2076 51
      vertex -71.1853 64.0448 51
      vertex -71.1853 5.95514 51
    endloop
  endfacet
  facet normal 0 0 -1
    outer loop
      vertex -71.4127 6.2076 51
      vertex -71.4127 63.7924 51
      vertex -71.1853 64.0448 51
    endloop
  endfacet
  facet normal 0 0 -1
    outer loop
      vertex -71.6875 6.40729 51
      vertex -71.4127 63.7924 51
      vertex -71.4127 6.2076 51
    endloop
  endfacet
  facet normal 0 0 -1
    outer loop
      vertex -71.6875 6.40729 51
      vertex -71.6875 63.5927 51
      vertex -71.4127 63.7924 51
    endloop
  endfacet
  facet normal 0 0 -1
    outer loop
      vertex -71.9978 6.54546 51
      vertex -71.6875 63.5927 51
      vertex -71.6875 6.40729 51
    endloop
  endfacet
  facet normal 0 0 -1
    outer loop
      vertex -71.9978 6.54546 51
      vertex -71.9978 63.4545 51
      vertex -71.6875 63.5927 51
    endloop
  endfacet
  facet normal 0 0 -1
    outer loop
      vertex -72.3301 6.61609 51
      vertex -71.9978 63.4545 51
      vertex -71.9978 6.54546 51
    endloop
  endfacet
  facet normal 0 0 -1
    outer loop
      vertex -72.3301 6.61609 51
      vertex -72.3301 63.3839 51
      vertex -71.9978 63.4545 51
    endloop
  endfacet
  facet normal 0 0 -1
    outer loop
      vertex -72.6698 6.61609 51
      vertex -72.3301 63.3839 51
      vertex -72.3301 6.61609 51
    endloop
  endfacet
  facet normal 0 0 -1
    outer loop
      vertex -72.6698 6.61609 51
      vertex -72.6698 63.3839 51
      vertex -72.3301 63.3839 51
    endloop
  endfacet
  facet normal 0 0 -1
    outer loop
      vertex -73.0022 6.54546 51
      vertex -72.6698 63.3839 51
      vertex -72.6698 6.61609 51
    endloop
  endfacet
  facet normal 0 0 -1
    outer loop
      vertex -73.0022 6.54546 51
      vertex -73.0022 63.4545 51
      vertex -72.6698 63.3839 51
    endloop
  endfacet
  facet normal 0 0 -1
    outer loop
      vertex -73.3125 6.40729 51
      vertex -73.0022 63.4545 51
      vertex -73.0022 6.54546 51
    endloop
  endfacet
  facet normal 0 0 -1
    outer loop
      vertex -73.3125 6.40729 51
      vertex -73.3125 63.5927 51
      vertex -73.0022 63.4545 51
    endloop
  endfacet
  facet normal 0 0 -1
    outer loop
      vertex -73.5873 6.2076 51
      vertex -73.3125 63.5927 51
      vertex -73.3125 6.40729 51
    endloop
  endfacet
  facet normal 0 0 -1
    outer loop
      vertex -73.5873 6.2076 51
      vertex -73.5873 63.7924 51
      vertex -73.3125 63.5927 51
    endloop
  endfacet
  facet normal 0 0 -1
    outer loop
      vertex -73.8147 5.95514 51
      vertex -73.5873 63.7924 51
      vertex -73.5873 6.2076 51
    endloop
  endfacet
  facet normal 0 0 -1
    outer loop
      vertex -73.8147 5.95514 51
      vertex -73.8147 64.0448 51
      vertex -73.5873 63.7924 51
    endloop
  endfacet
  facet normal 0 0 -1
    outer loop
      vertex -73.9845 5.66093 51
      vertex -73.8147 64.0448 51
      vertex -73.8147 5.95514 51
    endloop
  endfacet
  facet normal 0 0 -1
    outer loop
      vertex -73.9845 5.66093 51
      vertex -73.9845 64.3391 51
      vertex -73.8147 64.0448 51
    endloop
  endfacet
  facet normal 0 0 -1
    outer loop
      vertex -74.0895 5.33784 51
      vertex -73.9845 64.3391 51
      vertex -73.9845 5.66093 51
    endloop
  endfacet
  facet normal 0 0 -1
    outer loop
      vertex -74.0895 5.33784 51
      vertex -74.0895 64.6621 51
      vertex -73.9845 64.3391 51
    endloop
  endfacet
  facet normal 0 0 -1
    outer loop
      vertex -74.5 3 51
      vertex -74.0895 5.33784 51
      vertex -74.125 5 51
    endloop
  endfacet
  facet normal -0 0 -1
    outer loop
      vertex -74.0895 5.33784 51
      vertex -74.5 3 51
      vertex -74.0895 64.6621 51
    endloop
  endfacet
  facet normal 0 0 -1
    outer loop
      vertex 74.0895 64.6621 51
      vertex 74.5 67 51
      vertex 74.0895 5.33784 51
    endloop
  endfacet
  facet normal 0 0 -1
    outer loop
      vertex 74.5 67 51
      vertex 74.0895 64.6621 51
      vertex 74.125 65 51
    endloop
  endfacet
  facet normal 0 0 -1
    outer loop
      vertex 73.9845 5.66093 51
      vertex 74.0895 64.6621 51
      vertex 74.0895 5.33784 51
    endloop
  endfacet
  facet normal 0 0 -1
    outer loop
      vertex 73.9845 5.66093 51
      vertex 73.9845 64.3391 51
      vertex 74.0895 64.6621 51
    endloop
  endfacet
  facet normal 0 0 -1
    outer loop
      vertex 73.8147 5.95514 51
      vertex 73.9845 64.3391 51
      vertex 73.9845 5.66093 51
    endloop
  endfacet
  facet normal 0 0 -1
    outer loop
      vertex 73.8147 5.95514 51
      vertex 73.8147 64.0448 51
      vertex 73.9845 64.3391 51
    endloop
  endfacet
  facet normal 0 0 -1
    outer loop
      vertex 73.5873 6.2076 51
      vertex 73.8147 64.0448 51
      vertex 73.8147 5.95514 51
    endloop
  endfacet
  facet normal 0 0 -1
    outer loop
      vertex 73.5873 6.2076 51
      vertex 73.5873 63.7924 51
      vertex 73.8147 64.0448 51
    endloop
  endfacet
  facet normal 0 0 -1
    outer loop
      vertex 73.3125 6.40729 51
      vertex 73.5873 63.7924 51
      vertex 73.5873 6.2076 51
    endloop
  endfacet
  facet normal 0 0 -1
    outer loop
      vertex 73.3125 6.40729 51
      vertex 73.3125 63.5927 51
      vertex 73.5873 63.7924 51
    endloop
  endfacet
  facet normal 0 0 -1
    outer loop
      vertex 73.0022 6.54546 51
      vertex 73.3125 63.5927 51
      vertex 73.3125 6.40729 51
    endloop
  endfacet
  facet normal 0 0 -1
    outer loop
      vertex 73.0022 6.54546 51
      vertex 73.0022 63.4545 51
      vertex 73.3125 63.5927 51
    endloop
  endfacet
  facet normal 0 0 -1
    outer loop
      vertex 72.6698 6.61609 51
      vertex 73.0022 63.4545 51
      vertex 73.0022 6.54546 51
    endloop
  endfacet
  facet normal 0 0 -1
    outer loop
      vertex 72.6698 6.61609 51
      vertex 72.6698 63.3839 51
      vertex 73.0022 63.4545 51
    endloop
  endfacet
  facet normal 0 0 -1
    outer loop
      vertex 72.3301 6.61609 51
      vertex 72.6698 63.3839 51
      vertex 72.6698 6.61609 51
    endloop
  endfacet
  facet normal 0 0 -1
    outer loop
      vertex 72.3301 6.61609 51
      vertex 72.3301 63.3839 51
      vertex 72.6698 63.3839 51
    endloop
  endfacet
  facet normal 0 0 -1
    outer loop
      vertex 71.9978 6.54546 51
      vertex 72.3301 63.3839 51
      vertex 72.3301 6.61609 51
    endloop
  endfacet
  facet normal 0 0 -1
    outer loop
      vertex 71.9978 6.54546 51
      vertex 71.9978 63.4545 51
      vertex 72.3301 63.3839 51
    endloop
  endfacet
  facet normal 0 0 -1
    outer loop
      vertex 71.6875 6.40729 51
      vertex 71.9978 63.4545 51
      vertex 71.9978 6.54546 51
    endloop
  endfacet
  facet normal 0 0 -1
    outer loop
      vertex 71.6875 6.40729 51
      vertex 71.6875 63.5927 51
      vertex 71.9978 63.4545 51
    endloop
  endfacet
  facet normal 0 0 -1
    outer loop
      vertex 71.4127 6.2076 51
      vertex 71.6875 63.5927 51
      vertex 71.6875 6.40729 51
    endloop
  endfacet
  facet normal 0 0 -1
    outer loop
      vertex 71.4127 6.2076 51
      vertex 71.4127 63.7924 51
      vertex 71.6875 63.5927 51
    endloop
  endfacet
  facet normal 0 0 -1
    outer loop
      vertex 71.1853 5.95514 51
      vertex 71.4127 63.7924 51
      vertex 71.4127 6.2076 51
    endloop
  endfacet
  facet normal 0 0 -1
    outer loop
      vertex 71.1853 5.95514 51
      vertex 71.1853 64.0448 51
      vertex 71.4127 63.7924 51
    endloop
  endfacet
  facet normal 0 0 -1
    outer loop
      vertex 71.0155 5.66093 51
      vertex 71.1853 64.0448 51
      vertex 71.1853 5.95514 51
    endloop
  endfacet
  facet normal 0 0 -1
    outer loop
      vertex 71.0155 5.66093 51
      vertex 71.0155 64.3391 51
      vertex 71.1853 64.0448 51
    endloop
  endfacet
  facet normal 0 0 -1
    outer loop
      vertex -70.9105 5.33784 51
      vertex 70.9105 5.33784 51
      vertex -70.875 5 51
    endloop
  endfacet
  facet normal 0 0 -1
    outer loop
      vertex 70.9105 5.33784 51
      vertex -70.9105 5.33784 51
      vertex 71.0155 5.66093 51
    endloop
  endfacet
  facet normal 0 0 -1
    outer loop
      vertex -70.875 5 51
      vertex 70.9105 5.33784 51
      vertex 70.875 5 51
    endloop
  endfacet
  facet normal 0 0 -1
    outer loop
      vertex -71.0155 5.66093 51
      vertex 71.0155 5.66093 51
      vertex -70.9105 5.33784 51
    endloop
  endfacet
  facet normal 0 0 -1
    outer loop
      vertex 74.0895 5.33784 51
      vertex 74.5 3 51
      vertex 74.125 5 51
    endloop
  endfacet
  facet normal 0 0 -1
    outer loop
      vertex 74.5 3 51
      vertex 74.0895 4.66214 51
      vertex 74.125 5 51
    endloop
  endfacet
  facet normal 0 0 -1
    outer loop
      vertex 74.5 3 51
      vertex 73.9845 4.33905 51
      vertex 74.0895 4.66214 51
    endloop
  endfacet
  facet normal 0 0 -1
    outer loop
      vertex 74.5 3 51
      vertex 73.8147 4.04485 51
      vertex 73.9845 4.33905 51
    endloop
  endfacet
  facet normal 0 0 -1
    outer loop
      vertex 74.5 3 51
      vertex 73.5873 3.79239 51
      vertex 73.8147 4.04485 51
    endloop
  endfacet
  facet normal 0 0 -1
    outer loop
      vertex 74.5 3 51
      vertex 73.3125 3.5927 51
      vertex 73.5873 3.79239 51
    endloop
  endfacet
  facet normal 0 0 -1
    outer loop
      vertex 74.5 3 51
      vertex 73.0022 3.45453 51
      vertex 73.3125 3.5927 51
    endloop
  endfacet
  facet normal 0 0 -1
    outer loop
      vertex 74.5 3 51
      vertex 72.6698 3.3839 51
      vertex 73.0022 3.45453 51
    endloop
  endfacet
  facet normal 0 0 -1
    outer loop
      vertex 74.5 3 51
      vertex 72.3301 3.3839 51
      vertex 72.6698 3.3839 51
    endloop
  endfacet
  facet normal 0 0 -1
    outer loop
      vertex 71.0155 64.3391 51
      vertex -70.875 65 51
      vertex 70.9105 64.6621 51
    endloop
  endfacet
  facet normal 0 0 -1
    outer loop
      vertex 70.9105 4.66214 51
      vertex -70.875 5 51
      vertex 70.875 5 51
    endloop
  endfacet
  facet normal 0 0 -1
    outer loop
      vertex -70.9105 4.66214 51
      vertex 70.9105 4.66214 51
      vertex 71.0155 4.33905 51
    endloop
  endfacet
  facet normal 0 0 -1
    outer loop
      vertex -71.0155 4.33905 51
      vertex 71.0155 4.33905 51
      vertex 71.1853 4.04485 51
    endloop
  endfacet
  facet normal 0 0 -1
    outer loop
      vertex -71.1853 4.04485 51
      vertex 71.1853 4.04485 51
      vertex 71.4127 3.79239 51
    endloop
  endfacet
  facet normal 0 0 -1
    outer loop
      vertex -71.4127 3.79239 51
      vertex 71.4127 3.79239 51
      vertex 71.6875 3.5927 51
    endloop
  endfacet
  facet normal 0 0 -1
    outer loop
      vertex -71.6875 3.5927 51
      vertex 71.6875 3.5927 51
      vertex 71.9978 3.45453 51
    endloop
  endfacet
  facet normal 0 0 -1
    outer loop
      vertex -71.9978 3.45453 51
      vertex 71.9978 3.45453 51
      vertex 72.3301 3.3839 51
    endloop
  endfacet
  facet normal 0 0 -1
    outer loop
      vertex -72.3301 3.3839 51
      vertex 72.3301 3.3839 51
      vertex 74.5 3 51
    endloop
  endfacet
  facet normal 0 0 -1
    outer loop
      vertex 70.9105 4.66214 51
      vertex -70.9105 4.66214 51
      vertex -70.875 5 51
    endloop
  endfacet
  facet normal 0 0 -1
    outer loop
      vertex 71.0155 4.33905 51
      vertex -71.0155 4.33905 51
      vertex -70.9105 4.66214 51
    endloop
  endfacet
  facet normal 0 0 -1
    outer loop
      vertex 71.1853 4.04485 51
      vertex -71.1853 4.04485 51
      vertex -71.0155 4.33905 51
    endloop
  endfacet
  facet normal 0 0 -1
    outer loop
      vertex 71.4127 3.79239 51
      vertex -71.4127 3.79239 51
      vertex -71.1853 4.04485 51
    endloop
  endfacet
  facet normal 0 0 -1
    outer loop
      vertex 71.6875 3.5927 51
      vertex -71.6875 3.5927 51
      vertex -71.4127 3.79239 51
    endloop
  endfacet
  facet normal 0 0 -1
    outer loop
      vertex 71.9978 3.45453 51
      vertex -71.9978 3.45453 51
      vertex -71.6875 3.5927 51
    endloop
  endfacet
  facet normal 0 0 -1
    outer loop
      vertex 72.3301 3.3839 51
      vertex -72.3301 3.3839 51
      vertex -71.9978 3.45453 51
    endloop
  endfacet
  facet normal 0 0 -1
    outer loop
      vertex -74.5 3 51
      vertex -72.3301 3.3839 51
      vertex 74.5 3 51
    endloop
  endfacet
  facet normal 0 0 -1
    outer loop
      vertex -74.5 67 51
      vertex -74.0895 64.6621 51
      vertex -74.5 3 51
    endloop
  endfacet
  facet normal -0 0 -1
    outer loop
      vertex -74.0895 4.66214 51
      vertex -74.5 3 51
      vertex -74.125 5 51
    endloop
  endfacet
  facet normal -0 0 -1
    outer loop
      vertex -73.9845 4.33905 51
      vertex -74.5 3 51
      vertex -74.0895 4.66214 51
    endloop
  endfacet
  facet normal -0 0 -1
    outer loop
      vertex -73.8147 4.04485 51
      vertex -74.5 3 51
      vertex -73.9845 4.33905 51
    endloop
  endfacet
  facet normal -0 0 -1
    outer loop
      vertex -73.5873 3.79239 51
      vertex -74.5 3 51
      vertex -73.8147 4.04485 51
    endloop
  endfacet
  facet normal -0 0 -1
    outer loop
      vertex -73.3125 3.5927 51
      vertex -74.5 3 51
      vertex -73.5873 3.79239 51
    endloop
  endfacet
  facet normal -0 0 -1
    outer loop
      vertex -73.0022 3.45453 51
      vertex -74.5 3 51
      vertex -73.3125 3.5927 51
    endloop
  endfacet
  facet normal -0 0 -1
    outer loop
      vertex -72.6698 3.3839 51
      vertex -74.5 3 51
      vertex -73.0022 3.45453 51
    endloop
  endfacet
  facet normal -0 0 -1
    outer loop
      vertex -72.3301 3.3839 51
      vertex -74.5 3 51
      vertex -72.6698 3.3839 51
    endloop
  endfacet
  facet normal 0 0 -1
    outer loop
      vertex 74.5 3 51
      vertex 74.0895 5.33784 51
      vertex 74.5 67 51
    endloop
  endfacet
  facet normal 0 0 -1
    outer loop
      vertex 74.0895 65.3378 51
      vertex 74.5 67 51
      vertex 74.125 65 51
    endloop
  endfacet
  facet normal 0 0 -1
    outer loop
      vertex 73.9845 65.6609 51
      vertex 74.5 67 51
      vertex 74.0895 65.3378 51
    endloop
  endfacet
  facet normal 0 0 -1
    outer loop
      vertex 73.8147 65.9551 51
      vertex 74.5 67 51
      vertex 73.9845 65.6609 51
    endloop
  endfacet
  facet normal 0 0 -1
    outer loop
      vertex 73.5873 66.2076 51
      vertex 74.5 67 51
      vertex 73.8147 65.9551 51
    endloop
  endfacet
  facet normal 0 0 -1
    outer loop
      vertex 73.3125 66.4073 51
      vertex 74.5 67 51
      vertex 73.5873 66.2076 51
    endloop
  endfacet
  facet normal 0 0 -1
    outer loop
      vertex 73.0022 66.5455 51
      vertex 74.5 67 51
      vertex 73.3125 66.4073 51
    endloop
  endfacet
  facet normal 0 0 -1
    outer loop
      vertex 72.6698 66.6161 51
      vertex 74.5 67 51
      vertex 73.0022 66.5455 51
    endloop
  endfacet
  facet normal 0 0 -1
    outer loop
      vertex 72.3301 66.6161 51
      vertex 74.5 67 51
      vertex 72.6698 66.6161 51
    endloop
  endfacet
  facet normal 0 0 -1
    outer loop
      vertex 70.9105 64.6621 51
      vertex -70.875 65 51
      vertex 70.875 65 51
    endloop
  endfacet
  facet normal 0 0 -1
    outer loop
      vertex 70.875 65 51
      vertex -70.875 65 51
      vertex 70.9105 65.3378 51
    endloop
  endfacet
  facet normal 0 0 -1
    outer loop
      vertex -70.9105 65.3378 51
      vertex 70.9105 65.3378 51
      vertex -70.875 65 51
    endloop
  endfacet
  facet normal 0 0 -1
    outer loop
      vertex 70.9105 65.3378 51
      vertex -70.9105 65.3378 51
      vertex 71.0155 65.6609 51
    endloop
  endfacet
  facet normal 0 0 -1
    outer loop
      vertex -71.0155 65.6609 51
      vertex 71.0155 65.6609 51
      vertex -70.9105 65.3378 51
    endloop
  endfacet
  facet normal 0 0 -1
    outer loop
      vertex 71.0155 65.6609 51
      vertex -71.0155 65.6609 51
      vertex 71.1853 65.9551 51
    endloop
  endfacet
  facet normal 0 0 -1
    outer loop
      vertex -71.1853 65.9551 51
      vertex 71.1853 65.9551 51
      vertex -71.0155 65.6609 51
    endloop
  endfacet
  facet normal 0 0 -1
    outer loop
      vertex 71.1853 65.9551 51
      vertex -71.1853 65.9551 51
      vertex 71.4127 66.2076 51
    endloop
  endfacet
  facet normal 0 0 -1
    outer loop
      vertex -71.4127 66.2076 51
      vertex 71.4127 66.2076 51
      vertex -71.1853 65.9551 51
    endloop
  endfacet
  facet normal 0 0 -1
    outer loop
      vertex 71.4127 66.2076 51
      vertex -71.4127 66.2076 51
      vertex 71.6875 66.4073 51
    endloop
  endfacet
  facet normal 0 0 -1
    outer loop
      vertex -71.6875 66.4073 51
      vertex 71.6875 66.4073 51
      vertex -71.4127 66.2076 51
    endloop
  endfacet
  facet normal 0 0 -1
    outer loop
      vertex 71.6875 66.4073 51
      vertex -71.6875 66.4073 51
      vertex 71.9978 66.5455 51
    endloop
  endfacet
  facet normal 0 0 -1
    outer loop
      vertex -71.9978 66.5455 51
      vertex 71.9978 66.5455 51
      vertex -71.6875 66.4073 51
    endloop
  endfacet
  facet normal 0 0 -1
    outer loop
      vertex 71.9978 66.5455 51
      vertex -71.9978 66.5455 51
      vertex 72.3301 66.6161 51
    endloop
  endfacet
  facet normal 0 0 -1
    outer loop
      vertex -72.3301 66.6161 51
      vertex 72.3301 66.6161 51
      vertex -71.9978 66.5455 51
    endloop
  endfacet
  facet normal 0 0 -1
    outer loop
      vertex 72.3301 66.6161 51
      vertex -72.3301 66.6161 51
      vertex 74.5 67 51
    endloop
  endfacet
  facet normal 0 0 -1
    outer loop
      vertex -74.5 67 51
      vertex -72.3301 66.6161 51
      vertex -72.6698 66.6161 51
    endloop
  endfacet
  facet normal 0 0 -1
    outer loop
      vertex -72.3301 66.6161 51
      vertex -74.5 67 51
      vertex 74.5 67 51
    endloop
  endfacet
  facet normal 0 0 -1
    outer loop
      vertex -73.0022 66.5455 51
      vertex -74.5 67 51
      vertex -72.6698 66.6161 51
    endloop
  endfacet
  facet normal 0 0 -1
    outer loop
      vertex -73.3125 66.4073 51
      vertex -74.5 67 51
      vertex -73.0022 66.5455 51
    endloop
  endfacet
  facet normal 0 0 -1
    outer loop
      vertex -73.5873 66.2076 51
      vertex -74.5 67 51
      vertex -73.3125 66.4073 51
    endloop
  endfacet
  facet normal 0 0 -1
    outer loop
      vertex -73.8147 65.9551 51
      vertex -74.5 67 51
      vertex -73.5873 66.2076 51
    endloop
  endfacet
  facet normal 0 0 -1
    outer loop
      vertex -73.9845 65.6609 51
      vertex -74.5 67 51
      vertex -73.8147 65.9551 51
    endloop
  endfacet
  facet normal 0 0 -1
    outer loop
      vertex -74.0895 65.3378 51
      vertex -74.5 67 51
      vertex -73.9845 65.6609 51
    endloop
  endfacet
  facet normal 0 0 -1
    outer loop
      vertex -74.125 65 51
      vertex -74.5 67 51
      vertex -74.0895 65.3378 51
    endloop
  endfacet
  facet normal 0 0 -1
    outer loop
      vertex -74.0895 64.6621 51
      vertex -74.5 67 51
      vertex -74.125 65 51
    endloop
  endfacet
endsolid OpenSCAD_Model
